<?xml version="1.0" encoding="UTF-8" standalone="no"?>
<!-- Created with Inkscape (http://www.inkscape.org/) -->

<svg
   width="944.70227"
   height="515.56665"
   viewBox="0 0 944.70227 515.56665"
   version="1.1"
   id="svg1"
   xml:space="preserve"
   xmlns="http://www.w3.org/2000/svg"
   xmlns:svg="http://www.w3.org/2000/svg"><defs
     id="defs1" /><g
     id="layer1"
     transform="translate(-27.64889,-14.21667)"><path
       style="display:inline;fill:#020302;stroke:none;stroke-width:0.397045"
       d="M 347.93923,131.08436 C 333.40461,124.20988 320.0288,116.1359 304.66136,110.86634 271.7314,99.57446 236.4195,97.38402 202.22383,103.11845 c -41.92708,7.03091 -81.20847,28.17728 -111.172502,58.1413 -26.068478,26.06849 -45.599788,59.26475 -55.249244,94.89367 -9.305254,34.35803 -10.98154,70.36989 -3.284812,105.21683 19.277933,87.2809 94.758318,158.76672 184.794258,167.48542 95.10693,9.20982 187.18469,-51.04349 218.51119,-141.28047 6.17271,-17.78064 11.37767,-37.44392 11.37767,-56.38034 19.80066,5.40467 39.08044,10.92297 59.95374,9.49354 10.57538,-0.72422 21.07457,-2.30491 31.36652,-4.8779 4.80719,-1.2018 9.45904,-3.20791 14.29361,-4.21859 0.22552,27.24481 9.67549,56.07519 21.73941,80.20302 11.09369,22.18743 26.2979,41.69134 43.77296,59.15965 62.97152,62.94729 163.69234,76.0566 241.40315,34.02331 30.37868,-16.43165 55.49278,-40.20892 75.49423,-68.16915 16.04541,-22.43012 27.22885,-49.63727 32.66061,-76.62962 6.8144,-33.86342 5.84041,-68.23822 -2.98395,-101.64344 -9.64239,-36.50208 -28.95245,-69.43271 -55.12766,-96.48031 -29.72657,-30.71733 -69.6252,-51.36477 -111.58516,-58.93262 -33.82633,-6.10088 -70.7705,-3.90772 -103.23161,7.88545 -9.45724,3.43585 -18.83625,7.24694 -27.79312,11.84117 -4.92215,2.52471 -9.83945,6.56257 -15.0877,8.23499 C 647.97513,111.27211 636.27681,90.75922 623.8062,75.10106 610.86202,58.84825 594.85403,44.31324 576.63694,34.15065 533.46149,10.06474 479.0545,7.32502 434.09791,28.55984 410.39853,39.75401 390.40977,57.01803 374.25782,77.48333 361.98593,93.03244 353.31983,112.12441 347.93923,131.08436 M 490.8753,34.31883 c 16.94118,-1.99889 35.60198,1.4308 51.6158,6.76875 15.59191,5.1973 30.55702,13.44131 43.27787,23.85879 11.15282,9.13338 20.71297,19.62866 28.77837,31.5951 35.7046,52.97405 31.43142,125.53888 -9.49718,174.3026 -10.00405,11.9192 -21.84692,21.9847 -35.16298,30.017 -15.95459,9.62388 -33.82586,16.45363 -52.4099,18.70613 -17.58264,2.13111 -34.00954,0.47079 -51.21876,-3.37794 -13.64166,-3.05087 -26.71142,-9.51654 -38.51332,-16.83426 -43.42002,-26.92241 -70.16548,-78.69273 -66.66798,-129.75732 1.94393,-28.382 11.8065,-55.12653 28.27015,-78.21779 9.12538,-12.79887 20.56964,-24.15376 33.63329,-32.91918 20.86573,-14.00048 43.10867,-21.21736 67.89464,-24.14188 m -2.38227,22.12113 v 17.07292 c 0,1.80018 0.61873,5.06198 -0.40805,6.6251 -1.02421,1.55925 -4.66217,1.62845 -6.34171,2.10988 -5.24577,1.50366 -10.061,3.28967 -14.69065,6.23169 -19.65735,12.49179 -27.40578,34.94773 -19.95334,56.89841 8.41462,24.78469 38.51711,30.67013 60.05485,38.83409 11.8965,4.50943 26.33857,11.15559 26.98343,25.88419 0.7239,16.53377 -15.0766,27.51779 -30.15979,28.55169 -17.63335,1.20873 -34.5282,-8.67338 -40.10151,-25.77238 -5.87129,1.01099 -11.89171,4.45929 -17.46997,6.58126 -1.30135,0.49503 -4.81672,1.11893 -5.23447,2.66106 -0.32149,1.18677 0.81197,2.81367 1.26403,3.86016 1.55527,3.60018 3.40546,7.16767 5.74857,10.32316 9.26288,12.47455 24.46066,22.52811 40.30861,23.82268 v 25.41086 h 23.42563 v -25.41086 c 36.06767,-1.55246 59.97701,-45.00632 39.56197,-75.43849 -11.58831,-17.27442 -34.97666,-21.49784 -53.06149,-28.66811 -11.55306,-4.58055 -25.36437,-9.54157 -28.79432,-22.94769 -3.9638,-15.49284 10.39073,-28.11441 24.42684,-30.45907 17.52129,-2.92681 34.68484,5.38473 41.68968,22.12113 7.33277,-1.30309 15.42682,-5.70238 22.2345,-8.73498 C 549.6902,96.09465 533.36203,83.38409 511.91866,80.65968 V 56.43996 h -23.42563 m -256.0938,65.68089 c 6.77736,-0.70942 13.88675,0.0948 20.64632,0.59034 22.43886,1.64508 44.40602,7.93395 64.71828,17.52846 6.18533,2.92165 12.06806,6.10358 17.86701,9.73433 2.04402,1.27973 5.56764,2.76753 6.7372,4.97013 1.36168,2.56441 -0.39922,8.63076 -0.68809,11.51275 -0.77751,7.7572 -0.64006,15.62277 -0.0358,23.38428 1.72775,22.19469 7.90697,43.67238 17.90778,63.53297 9.16352,18.19782 22.44372,36.19513 38.41498,48.96943 6.42838,5.14162 12.84333,10.28182 19.85223,14.634 1.94737,1.20922 7.34388,3.25842 8.031,5.52399 1.41276,4.65801 -0.62679,12.6499 -1.28124,17.42831 -2.22088,16.21535 -6.10123,32.09669 -12.36355,47.24831 -26.51838,64.16101 -86.30235,112.74263 -156.38043,119.44303 -23.0798,2.20678 -46.85903,0.16183 -69.08577,-6.67253 C 162.19148,492.40063 139.98159,480.5679 120.03563,464.35924 104.8425,452.01286 91.221443,437.01109 80.605979,420.52991 30.244903,342.34117 43.523181,235.91835 111.6977,172.41253 c 24.44405,-22.77007 55.08655,-39.11797 87.74686,-46.32124 10.9553,-2.41619 21.88756,-2.81198 32.95471,-3.97044 m 525.29008,-0.0552 c 3.85983,-0.45545 7.67618,0.18384 11.5143,0.27787 15.79852,0.38701 31.35489,3.16952 46.45421,7.87071 76.78713,23.90772 131.07846,96.29215 134.58254,176.36383 1.31978,30.15665 -4.0738,61.47067 -16.85415,88.938 -27.21217,58.48416 -84.52989,103.72966 -149.49196,110.70959 -81.90788,8.80069 -163.88953,-39.22808 -194.73018,-116.26822 -6.71196,-16.76651 -12.4235,-34.26861 -13.75349,-52.40989 -0.3275,-4.46712 -2.28141,-10.64315 -1.0297,-15.01418 0.75319,-2.63015 6.40797,-4.74088 8.60879,-6.10548 7.16444,-4.44229 13.85501,-9.70282 20.24926,-15.18143 17.31299,-14.83378 30.51244,-33.79826 40.39591,-54.2251 9.02389,-18.65031 13.87407,-40.11314 14.77769,-60.74782 0.3307,-7.55141 -0.19085,-15.1076 -0.38725,-22.63155 -0.0629,-2.4083 -1.49109,-5.98813 -0.5484,-8.2647 0.7697,-1.8589 3.70838,-3.09872 5.31876,-4.12977 5.14121,-3.29166 10.51218,-6.18006 15.88178,-9.07783 17.417,-9.39929 37.29182,-15.11499 56.77738,-18.12311 7.39787,-1.14209 14.84376,-1.10889 22.23451,-1.98092 m -650.75618,184.11536 10.32315,0.39705 h 19.85223 v 20.64631 h -16.27882 l -6.11896,0.40808 -2.08235,5.94464 -5.29821,17.07292 11.5143,0.39704 h 23.02859 c 1.20727,13.82745 11.6461,28.83479 20.01091,39.30742 26.07506,32.64559 67.08983,45.00709 107.44041,40.16307 15.3145,-1.83847 32.87595,-6.82023 45.26309,-16.34039 v -0.39704 c -4.696,-7.38362 -7.48799,-16.89069 -10.7202,-25.01381 -3.79781,1.25927 -7.10982,4.43641 -10.7202,6.25437 -8.35702,4.20804 -16.97134,7.39646 -26.20495,9.06189 -28.96173,5.22362 -57.62402,-5.01249 -78.2178,-25.63942 -6.89851,-6.90961 -15.70078,-17.86842 -17.46997,-27.79313 6.84095,1.62867 15.20776,0.39704 22.2345,0.39704 h 44.07196 16.27883 c 1.59506,0 4.73366,0.59713 6.07394,-0.40806 1.46063,-1.09549 1.76258,-4.29852 2.27413,-5.94465 1.74648,-5.61999 4.29336,-11.65972 5.15145,-17.46997 h -75.83553 -19.05814 l -6.90723,-0.63661 -0.96627,-4.92201 0.32965,-15.08769 h 79.01189 20.64632 l 8.13544,-0.52326 2.47356,-6.22651 4.87574,-17.07292 H 171.25439 c 14.43884,-37.21654 55.199,-61.70121 94.89368,-54.29156 8.5571,1.59731 16.83286,4.44046 24.61677,8.33241 4.13523,2.06761 8.67296,6.00786 13.10247,7.04878 1.96848,-6.0393 4.47014,-11.96982 6.8291,-17.86701 0.64954,-1.62375 2.74224,-4.92397 2.14149,-6.67624 -0.54612,-1.59292 -3.2654,-2.53295 -4.6031,-3.32953 -4.85641,-2.89193 -9.83723,-5.305 -15.08769,-7.3833 -22.6149,-8.95173 -48.02527,-9.68798 -71.46804,-3.90277 -26.08182,6.4365 -50.48055,23.7094 -65.02893,46.30565 -4.02383,6.24975 -7.77099,12.95189 -10.56672,19.85223 -1.21086,2.98862 -2.16891,9.0776 -4.48911,11.27472 -1.40625,1.33165 -5.07114,0.63662 -6.86802,0.63662 h -14.29361 c -1.63176,0 -4.29443,-0.50469 -5.78503,0.23958 -1.51857,0.75822 -1.94181,4.59999 -2.38441,6.11314 -1.6724,5.7175 -3.51569,11.39867 -5.33007,17.07292 m 561.81818,-100.4523 44.92548,78.61484 24.55733,42.88082 h -54.39512 l 0.39704,23.82268 h 60.35075 v 20.64633 h -60.35079 v 23.82268 h 60.35079 v 56.38034 l 19.45518,-0.11088 7.70129,-0.29721 0.63665,-3.56235 V 437.6028 395.51607 h 44.86605 11.11725 l 3.95941,-0.63662 0.40808,-6.11314 v -17.07293 h -60.35079 v -20.64633 h 44.86605 11.11725 l 3.95941,-0.63662 0.40808,-6.11314 v -17.07292 h -53.99807 l 7.71359,-13.10247 16.5107,-28.98426 33.46971,-58.7626 11.78881,-20.64633 c -7.01439,-2.07339 -17.74487,-0.75326 -25.01381,-0.12744 -1.95052,0.16793 -5.42212,-0.75262 -7.06227,0.38265 -2.20122,1.52363 -3.34125,5.41622 -4.62049,7.68568 -3.70522,6.57334 -7.1503,13.29865 -10.88907,19.85223 -7.90369,13.85412 -15.22682,28.05847 -22.81378,42.08673 -6.45238,11.93037 -13.62507,23.85998 -18.53858,36.52812 h -0.79409 c -4.08106,-10.51899 -9.92429,-20.22495 -15.17468,-30.1754 -8.63716,-16.36878 -17.40284,-32.75923 -26.57472,-48.83649 -3.56948,-6.2569 -7.0965,-12.63816 -10.36025,-19.05814 -1.16016,-2.28208 -2.62117,-6.92254 -4.82274,-8.32692 -1.95017,-1.24398 -6.32535,-0.40806 -8.57998,-0.40806 -7.36644,0 -17.16695,-1.68771 -24.21971,0.39704 z"
       id="path4" /></g></svg>
