<?xml version="1.0" encoding="UTF-8" standalone="no"?>
<!-- Created with Inkscape (http://www.inkscape.org/) -->

<svg
   width="945.28705"
   height="956.04932"
   viewBox="0 0 945.28705 956.04932"
   version="1.1"
   id="svg1"
   xml:space="preserve"
   xmlns="http://www.w3.org/2000/svg"
   xmlns:svg="http://www.w3.org/2000/svg"><defs
     id="defs1" /><g
     id="layer1"
     transform="translate(-29.032784,-26.656763)"><path
       style="display:inline;fill:#050505;stroke:none;stroke-width:1.55955"
       d="M 366.30468,28.516616 C 277.42361,40.192289 195.69474,72.428899 132.43373,138.58275 -1.4724618,278.61234 -8.252464,510.6913 129.27608,651.67437 c 26.65868,27.32827 56.76666,51.48954 90.43099,69.69835 81.69623,44.18899 177.87921,57.65029 268.24243,34.95506 34.3708,-8.63245 67.93282,-22.73139 98.25159,-41.02964 7.34922,-4.43534 25.82698,-21.87909 34.31007,-17.42813 9.472,4.96988 32.29648,26.25247 35.61577,36.46046 3.21809,9.897 -6.4121,16.01822 2.16959,26.51233 17.38065,21.2538 39.49046,39.84656 58.90667,59.26286 l 115.40664,115.40662 c 24.84902,24.84903 49.81103,54.07898 88.89429,45.74312 44.90065,-9.5765 67.02372,-62.87408 42.93689,-101.88688 -15.86163,-25.69078 -45.0273,-47.31732 -66.33013,-68.62015 L 762.43012,675.0676 c -5.2866,-5.28423 -11.9956,-14.48799 -20.27414,-14.52206 -4.88521,-0.0201 -9.16063,4.7796 -14.03594,3.31157 -8.54782,-2.57391 -17.22177,-15.36857 -23.39323,-21.54003 -4.23203,-4.23198 -13.61541,-10.68454 -14.09011,-17.15504 -0.44604,-6.08066 7.77224,-13.94177 10.96978,-18.71459 9.78734,-14.60915 18.74456,-29.61705 26.85051,-45.22692 21.30103,-41.01964 33.8017,-89.66822 36.95268,-135.68077 C 778.26681,237.79326 645.82223,62.858477 458.31807,32.149539 428.9344,27.337145 395.97533,24.618976 366.30468,28.516616 m 18.71458,23.176676 c 30.56322,-3.606161 65.49069,2.513042 95.13249,9.889116 C 641.28494,101.67881 751.75116,257.49609 740.45688,422.42067 729.31245,585.15791 597.63994,720.98406 436.48438,740.12338 397.22247,744.78633 356.433,742.08261 317.95866,732.95139 92.85179,679.52623 -17.134106,410.80459 104.40031,215.00065 146.27635,147.53427 212.42258,93.28416 288.32723,68.93972 320.33825,58.673007 351.97927,55.591697 385.01926,51.693292 m -10.91683,43.883927 c -64.43516,8.464341 -120.73854,28.643681 -171.55039,70.476971 -28.85347,23.75504 -53.62901,54.63011 -70.55999,87.93519 -69.807471,137.31913 -31.09797,304.51127 97.07232,392.96665 29.89615,20.63247 63.28585,34.2574 98.25159,43.46638 34.01432,8.9584 71.27778,10.24806 106.04932,6.03365 43.96731,-5.32897 85.47717,-20.5013 123.20437,-43.53982 28.13699,-17.18213 52.44137,-39.94732 73.42274,-65.18338 C 766.00689,424.13709 683.82149,164.75927 480.15175,106.28588 446.71712,96.68681 408.87624,91.009272 374.10243,95.577219 m -1.55955,24.736231 c 34.67426,-4.10486 73.05873,0.52496 106.04932,11.5113 39.69682,13.21951 75.2588,32.80182 106.04934,61.48177 99.58515,92.75879 115.77756,246.26348 40.54703,358.55671 -18.16355,27.11187 -40.60672,50.4182 -67.05937,69.51787 -41.63141,30.05931 -88.15145,45.68635 -138.79985,51.68172 C 253.71789,692.66669 110.59353,537.84376 121.59508,377.19374 130.91615,241.08273 239.3838,136.07723 372.54288,120.31345 m 12.47638,40.76483 C 303.6085,171.7623 232.78105,206.88822 191.995,282.06126 c -15.53623,28.63501 -27.8757,62.1644 -28.42689,95.13248 -0.171,10.22921 -5.32121,33.49847 12.46559,32.22467 14.0508,-1.00622 10.79596,-21.06305 12.04315,-30.66512 4.49318,-34.59258 14.55591,-67.23265 33.72768,-96.69203 26.58658,-40.85296 66.84235,-71.91012 113.30917,-86.79807 15.92027,-5.1008 31.84255,-7.50143 48.34601,-9.44868 6.84359,-0.80747 15.9693,1.30902 21.33796,-4.06012 14.49693,-14.49817 -8.68738,-22.13162 -19.77841,-20.67611 M 710.96501,684.4249 v 1.55955 c -6.86216,6.8622 -22.61594,29.30893 -32.75054,29.30893 -4.94383,0 -9.3215,-5.90417 -12.47638,-9.03593 L 637.6662,678.1867 c 4.77231,-6.63508 26.20192,-32.33375 34.36547,-31.31371 5.4096,0.67592 9.36035,7.37202 12.68572,11.03958 8.33832,9.19633 17.47116,17.73583 26.24762,26.51233 m -28.07189,65.50106 c 11.39353,-16.17443 28.12681,-29.68721 42.10782,-43.66737 4.08116,-4.08093 10.75941,-13.71345 17.15504,-13.71345 5.94465,0 11.8139,8.374 15.59549,12.1539 l 35.86963,35.86962 c 37.81564,37.81564 76.63321,74.87492 113.40179,113.70753 14.36424,15.17057 35.37179,28.87033 41.10664,50.04512 8.76675,32.3695 -23.0124,61.98236 -54.6973,51.07646 -21.82874,-7.51352 -42.44069,-36.56087 -58.15459,-52.90074 -19.90566,-20.69856 -40.49878,-41.00421 -61.1292,-60.9548 -31.01089,-29.98888 -61.13414,-60.72513 -91.25532,-91.61627 z"
       id="path6" /></g></svg>
