<?xml version="1.0" encoding="UTF-8" standalone="no"?>
<!-- Created with Inkscape (http://www.inkscape.org/) -->

<svg
   width="705.40479"
   height="968.02673"
   viewBox="0 0 705.40479 968.02673"
   version="1.1"
   id="svg1"
   xml:space="preserve"
   xmlns="http://www.w3.org/2000/svg"
   xmlns:svg="http://www.w3.org/2000/svg"><defs
     id="defs1" /><g
     id="layer1"
     transform="translate(-26.493277,-17.794834)"><path
       style="display:inline;fill:#060606;stroke:none;stroke-width:1.35654"
       d="m 69.232698,19.694017 c -19.672773,4.171868 -36.075735,18.565201 -40.307751,38.637217 -4.120821,19.544594 -1.7449,41.149591 -1.7449,61.044176 v 111.23604 519.55373 139.72333 c 0,22.1098 -3.915319,48.99281 6.951181,69.18339 13.048463,24.24487 36.558608,25.77421 60.875676,25.77421 h 96.314136 339.13428 105.8099 c 17.24823,0 37.44761,2.86301 54.26148,-1.22051 54.88061,-13.32841 39.33958,-91.1469 39.33958,-133.07667 V 438.16164 253.67259 202.12417 c 0,-7.66645 1.42721,-17.11038 -2.11335,-24.18741 -7.27049,-14.53277 -24.51317,-26.85677 -35.86969,-38.21329 L 613.20409,61.044308 C 600.98888,48.829098 585.98422,26.914783 569.7949,20.360783 557.8862,15.539704 539.12262,18.991657 526.38571,18.991657 H 428.71504 185.89489 108.57228 c -12.594177,0 -26.990359,-1.916407 -39.339582,0.70236 m 481.570682,27.78492 v 86.818383 c 0,18.71746 -0.50332,37.00877 13.80086,51.31294 14.40779,14.40782 32.47089,13.80084 51.31292,13.80084 h 86.81838 v 541.25832 145.14947 c 0,17.08117 5.19703,44.61273 -4.07694,59.68242 -7.79548,12.66711 -24.70335,12.19269 -37.97571,12.21405 -34.35254,0.0552 -68.62084,0 -103.09683,0 -123.29087,0 -247.22839,4.08749 -370.33464,-1.30313 -29.2721,-1.28178 -58.87242,-0.0534 -88.174905,-0.0534 -11.926037,0 -26.962206,2.86005 -36.479956,-5.87308 -12.43623,-11.411 -8.285769,-34.6162 -8.285769,-49.74494 V 771.86973 248.2464 105.80999 c 0,-16.306591 -4.837385,-41.976723 9.554376,-53.538177 9.83001,-7.896796 26.077581,-4.792917 37.924424,-4.792917 h 90.88798 358.12581 m 28.48728,18.99152 70.53993,70.539934 32.55689,35.26997 h -63.75724 c -9.32362,0 -21.43166,2.01047 -29.83867,-2.83446 -19.77302,-11.39528 -10.85745,-58.82431 -10.85745,-78.557775 0,-7.622654 -1.61279,-17.341469 1.35654,-24.417669 M 400.22776,109.2516 c -27.61403,6.38187 -23.83371,68.61723 9.49576,60.95416 26.81612,-6.16551 22.32408,-68.30806 -9.49576,-60.95416 m -305.220856,0.628 v 9.49576 c 23.146236,0.0179 14.921906,32.73218 14.921906,50.19188 h 12.20884 v -50.19183 h 14.9219 c -0.513,-15.62204 -30.32291,-9.49576 -42.052646,-9.49576 m 39.339576,59.68763 c 10.16077,-0.008 13.49979,-1.71587 14.9219,-12.20883 4.33167,0 10.57493,-1.07156 14.38704,1.39421 8.68925,5.62047 5.55506,10.80486 18.16986,10.81462 -2.30266,-15.59148 -9.35211,-31.06002 -13.94426,-46.12226 -1.91723,-6.28864 -3.28188,-14.39085 -11.75667,-13.33826 -6.63523,0.82415 -7.27078,9.50139 -8.78819,14.69479 -4.30169,14.72263 -10.75393,29.57027 -12.98968,44.76573 m 50.19187,-59.68763 11.16635,29.84382 -12.52289,29.84381 c 14.73503,-0.001 18.38057,-6.32101 21.7046,-20.34805 h 1.35653 c 2.16481,14.45344 7.24436,20.3464 21.7046,20.34805 L 214.71716,138.94262 226.591,109.87965 c -14.2592,0.001 -17.95606,6.4476 -20.34806,20.34806 -6.44488,-12.76788 -5.72016,-20.34625 -21.70459,-20.34806 m 66.47032,0 1.35654,59.68763 h 12.20883 v -21.70459 l 14.13269,19.52954 12.99805,2.17505 c -1.91176,-6.99 -7.77474,-14.6038 -8.22086,-21.70459 -0.74434,-11.84767 13.83918,-23.63699 -0.0659,-34.57291 -7.93577,-6.24128 -22.91149,-3.41013 -32.40933,-3.41013 m 46.12226,0 v 59.68763 h 33.91343 v -9.49576 h -21.70459 v -16.27844 h 18.99152 v -9.49576 h -18.99152 c 0.0122,-16.01789 7.82765,-14.92191 21.70459,-14.92191 v -9.49576 h -33.91343 m 40.69612,0 v 59.68763 h 12.20883 v -20.34805 c 6.91682,-0.0573 15.68811,-0.21784 21.24301,-4.95512 8.56264,-7.30232 7.73459,-24.04004 -1.0415,-30.78588 -8.212,-6.31224 -22.65932,-3.59858 -32.41034,-3.59858 m 96.31413,0 v 59.68763 h 12.20884 v -21.70459 l 14.51364,20.31039 12.6171,1.3942 c -1.6917,-7.13887 -8.03672,-15.82115 -7.62844,-23.06113 0.62195,-11.02874 13.54798,-22.58498 0.54114,-32.95987 -7.98862,-6.37209 -22.70799,-3.66663 -32.25228,-3.66663 m 40.69612,0 v 9.49576 h 14.92191 v 50.19187 h 12.20883 v -50.19187 c 8.41436,-0.001 15.16425,0.81769 13.56537,-9.49576 H 474.8373 m -210.26326,27.13074 v -17.63498 c 16.59688,0.19622 17.02287,19.37595 0,17.63498 m 85.46184,1.35654 v -18.99152 c 18.73883,0.16948 19.12731,18.93654 0,18.99152 m 51.80484,-18.14684 c 14.91818,-5.64779 16.69681,34.31806 6.2363,38.83817 -15.70938,6.78823 -16.57295,-34.92487 -6.2363,-38.83817 m 44.5093,16.7903 v -17.63498 c 16.70767,0.40404 17.02344,20.38589 0,17.63498 m -287.58588,-9.49576 4.06962,20.34806 H 153.338 l 5.42614,-20.34806 M 99.386335,238.40111 c -4.381466,2.04673 -4.315931,7.03207 -4.374208,11.20186 -0.134976,9.6525 -3.873226,30.715 1.594161,38.90838 2.557738,3.83298 7.968282,3.13608 11.965992,3.14428 10.0365,0.0208 27.14199,3.2789 36.31667,-1.00697 4.38151,-2.04682 4.31593,-7.03216 4.37421,-11.20187 0.12874,-9.21433 3.98235,-31.60631 -2.16983,-38.90837 -5.36961,-6.37318 -40.32399,-5.5862 -47.706995,-2.13731 m 37.673215,11.20186 v 29.84382 h -29.84381 v -29.84382 h 29.84381 m 36.70085,7.78966 c -7.9983,3.30955 -6.87906,14.06149 1.30727,16.19681 15.22015,3.97 35.78389,0.4312 51.52333,0.4312 h 203.48057 59.68764 c 6.1459,0 17.23772,2.09475 22.17562,-2.3635 7.30223,-6.59284 0.45596,-14.72321 -7.25894,-15.21186 -21.07185,-1.33476 -42.6347,-0.0596 -63.75202,-0.0596 H 252.36521 198.10372 c -7.27151,0 -17.51874,-1.81689 -24.34332,1.00697 m 447.58291,66.81989 c -3.83724,0 -29.70681,1.75131 -17.0415,10.60945 4.36669,3.05408 10.93817,-0.1538 14.86643,3.77444 3.58899,3.58893 0.53081,9.43424 3.56932,13.09016 8.24761,9.92353 9.45805,-11.83219 9.45805,-15.26522 22.69581,0 22.51607,-12.20883 0,-12.20883 0,-21.37325 -10.8523,-21.53362 -10.8523,0 m -82.74877,58.33109 h -28.48728 c 4.26568,-9.12587 17.48985,-21.19432 17.66745,-31.20035 0.17237,-9.71319 -13.33927,-23.80473 -19.02398,-31.20036 h 29.84381 c 2.87097,20.71564 19.18187,4.36934 11.96492,-7.93827 -5.39054,-9.19281 -36.30062,-4.29027 -45.87834,-4.27056 -4.26527,0.008 -10.85537,-0.75585 -12.68715,4.27056 -5.23399,14.3622 22.57942,26.74554 19.94922,40.49517 -2.35465,12.30889 -22.88751,23.23376 -20.32189,36.54698 1.09192,5.66605 7.15551,5.47334 11.70328,5.50464 11.30271,0.0777 22.61038,0.0199 33.91343,10e-4 4.27618,-0.007 10.38316,0.80498 13.13417,-3.30134 9.72842,-14.52109 -11.24079,-31.10328 -11.77764,-8.9075 M 99.277459,316.11097 c -8.459596,5.00893 -4.274408,29.3498 -4.270555,37.94536 0.0014,3.56124 -0.747194,8.50925 1.394208,11.62058 2.360036,3.42893 7.129028,3.24466 10.814628,3.29611 9.73512,0.13591 29.2817,3.64404 37.78209,-1.38898 8.44946,-5.00286 4.28827,-29.35723 4.27055,-37.94537 -0.008,-3.80931 0.52063,-8.5186 -2.17505,-11.62058 -5.49455,-6.32273 -40.77912,-6.07352 -47.815871,-1.90712 m 37.782091,10.81462 v 29.84382 h -29.84381 v -29.84382 h 29.84381 m 35.47091,8.1769 c -6.73888,3.99037 -4.41537,13.66444 2.5383,15.65251 11.16534,3.19221 26.37092,0.58826 37.95687,0.58826 h 162.78446 46.12226 c 5.21552,-3.3e-4 12.83163,1.19823 16.62702,-3.30134 4.67809,-5.54604 0.59903,-12.82079 -5.79567,-14.02382 -14.83323,-2.79058 -32.36265,-0.30982 -47.45785,-0.30982 H 232.01715 189.9645 c -5.16948,0 -12.8005,-1.3495 -17.43404,1.39421 m 432.91749,26.74346 c -5.69,2.78933 -2.55002,9.44277 2.39063,10.77066 7.73144,2.07799 33.51013,3.54062 40.20314,-0.96296 4.61739,-3.10695 2.3654,-9.08502 -2.36037,-10.38339 -8.42288,-2.31419 -32.36793,-3.28002 -40.2334,0.57569 m -31.38254,23.06113 c -6.65395,3.01694 -3.02521,10.37945 2.53836,11.97018 17.65275,5.04735 42.64464,0.58826 61.01799,0.58826 6.07416,0 16.2623,1.86732 21.26711,-2.36346 6.95523,-5.87955 -2.21767,-10.93795 -7.70174,-11.17574 -17.5639,-0.7616 -35.32301,-0.0262 -52.90495,-0.0262 -7.04857,0 -17.68206,-1.95594 -24.21677,1.00693 m -248.4472,115.6553 H 202.17333 c -7.4612,0 -38.65087,-4.46444 -37.35081,8.08581 0.59407,5.73498 6.99456,6.67129 11.57661,6.81515 12.63507,0.39668 25.34135,0.0209 37.98304,0.0209 h 78.67915 c 11.65161,0 26.64987,-2.5274 37.92963,0.43124 6.39703,1.67792 10.29061,9.25362 15.0967,13.39478 9.36768,8.07162 21.49512,15.25696 33.79205,17.37439 v 1.35654 h -82.74877 -56.97456 -59.68763 c -5.07568,10e-4 -19.80209,-0.15016 -14.82454,9.30002 4.8166,9.14462 36.87422,4.26535 46.02489,4.26535 h 139.72333 c 14.29696,0 40.85186,5.19452 53.79467,-0.81852 4.7132,-2.18969 4.04925,-7.2216 3.17989,-11.39032 15.57657,-1.97891 29.46469,-6.92182 42.05265,-16.45637 10.99098,-8.32494 19.50916,-19.50213 24.55901,-32.37896 5.11375,-13.03987 7.98075,-26.63595 6.25304,-40.69612 -8.86295,-72.12767 -98.06703,-96.99674 -144.16454,-42.05265 -7.65255,9.12115 -12.75819,19.5634 -15.23273,31.20035 -3.73179,17.54917 -1.69095,34.71734 3.7838,51.54842 M 389.37546,399.2146 c 73.26194,-9.63341 112.54224,89.80356 47.4788,129.2049 -8.58683,5.20003 -18.54955,8.44194 -28.48728,9.73334 -87.34514,11.35041 -106.2517,-127.46419 -18.99152,-138.93824 m -288.94241,19.95552 v 51.54841 h 10.8523 v -51.54841 h -10.8523 m 264.52474,36.6265 c -7.98332,0.0282 -12.01435,1.03384 -13.56537,9.49576 h 10.8523 v 6.78269 h -9.49576 l -2.71308,9.49576 c 16.46871,0.0122 16.08396,11.6485 27.13597,21.45339 15.34284,13.61161 36.82462,14.22952 54.25626,4.32081 l -4.06961,-10.8523 c -19.65845,10.04632 -40.40716,7.32351 -50.19188,-14.9219 h 33.91343 l 1.35654,-9.49576 h -37.98304 v -6.78269 c 13.00665,0 39.62199,6.07209 43.40919,-9.49576 h -40.69612 c 10.35974,-23.55282 30.0095,-20.69149 50.19188,-14.92191 l 2.71307,-10.8523 c -23.73078,-9.68366 -60.26274,-5.30754 -65.11378,25.77421 m -234.68093,-20.34806 -10.85229,-2.71307 v 37.98304 h 9.49576 c 0,-5.33471 -3.05826,-27.66987 4.19099,-28.79918 8.173,-1.27324 5.30477,24.01545 5.30477,28.79918 h 9.49576 c 0,-9.03819 2.15014,-53.80565 -17.63499,-35.26997 m 52.90495,21.7046 h -9.49576 c -11.18564,20.9939 -11.10557,-32.23023 0,-10.8523 h 9.49576 c -1.1618,-21.20911 -28.49481,-17.06402 -29.22101,2.71307 -0.22754,6.19657 0.42763,15.08605 5.33821,19.46256 10.33904,9.21445 23.22772,0.64154 23.8828,-11.32333 m 16.28367,-24.88763 c -19.072,5.9611 -13.56173,46.3269 9.46959,38.92403 18.48795,-5.94252 12.66686,-45.84291 -9.46959,-38.92403 m 36.62128,3.18303 -10.8523,-2.71307 v 37.98304 h 10.8523 c 0,-9.37537 -3.55661,-25.69025 5.42615,-31.20036 2.1965,6.02676 0.19731,29.24582 5.83118,31.40239 9.86206,3.77505 5.27339,-21.43071 7.19518,-25.81714 3.6717,-8.38066 7.24809,3.04305 7.3154,6.62359 l 0.007,8.13922 v 10.8523 l 9.49576,1.35654 c 2.787,-9.42857 5.03651,-33.71679 -5.50051,-39.07579 -4.6751,-2.37771 -8.75572,0.68162 -13.49101,0.57357 -6.80132,-0.1552 -10.59158,-3.43067 -16.27845,1.87571 m 69.18339,24.41767 h -1.35653 c -7.17275,4.22096 -12.14368,2.54339 -14.92191,-5.42615 4.30798,4.6e-4 16.02649,2.57046 18.95385,-0.87188 6.81,-8.00812 -3.703,-21.52543 -12.17117,-21.98304 -18.22913,-0.98508 -22.83335,29.46473 -9.43614,37.96942 7.8559,4.98732 25.86753,2.06767 18.93142,-9.68835 m -99.02722,-20.34806 c 1.33104,2.76582 2.28329,5.04558 2.57283,8.14552 0.20814,2.22814 0.20772,4.54048 0.11408,6.77536 -0.78052,18.62535 -22.64821,-7.90723 -2.68691,-14.92088 m 93.60107,8.13923 -10.8523,-1.35654 c 3.94343,-7.01083 9.15398,-6.7814 10.8523,1.35654 m 214.33287,73.253 v 1.35654 c -4.78564,4.50429 -20.75965,22.14768 -15.97592,29.0253 1.88213,2.70599 6.36267,2.15444 9.1943,2.17402 6.49629,0.0449 29.82776,3.49538 33.09384,-3.14328 5.17709,-10.52293 -8.15843,-21.95134 -8.67724,-6.35145 H 511.4638 c 3.16912,-6.69915 10.11798,-13.07364 11.56618,-20.34805 1.65907,-8.33401 -8.22891,-18.31114 -12.92272,-24.41767 h 21.7046 c 1.66876,14.49787 14.33264,2.98754 8.10155,-6.35144 -3.67293,-5.50493 -38.645,-6.06687 -41.83076,0 -3.71896,7.08233 11.37822,23.52197 16.09423,28.05603 M 103.45595,493.43005 c -7.076692,3.30578 -7.010547,35.93876 -2.98523,41.97102 3.77727,5.66054 35.86577,5.52285 41.81403,2.67122 7.06701,-3.38795 7.12621,-38.14251 1.90705,-43.47411 -4.9754,-5.08262 -34.4326,-4.11257 -40.73585,-1.16813 m 462.47024,8.13923 c -6.96579,3.15281 -3.45754,11.61244 2.53835,13.32671 18.54224,5.30132 45.82016,0.93369 65.0876,0.3465 5.91952,-0.18042 17.65154,0.63029 22.62881,-2.71416 5.53901,-3.72186 1.76499,-10.85879 -3.69684,-11.76504 -19.24261,-3.1928 -41.46269,-0.20094 -60.98462,-0.20094 -7.40384,0 -18.7156,-2.09691 -25.5733,1.00693 m -430.22318,1.70614 v 25.77421 h -25.7742 v -25.77421 h 25.7742 m 430.22427,35.30764 c -5.11928,3.04786 -4.33329,9.84661 1.30214,11.5829 19.08417,5.87995 47.67536,0.58826 67.67926,0.58826 5.84722,0 17.71353,2.19646 22.23636,-2.36347 6.81565,-6.87164 -5.00305,-11.10122 -10.02752,-11.19561 -18.97674,-0.35644 -37.99417,-0.007 -56.97456,-0.007 -6.75135,0 -18.22969,-2.16955 -24.21568,1.39421 m -66.23482,25.7742 c -3.55735,2.42479 -2.56487,7.01904 1.12107,8.63957 6.13969,2.69986 16.24954,0.81901 22.85911,0.81901 h 96.31413 c 7.41619,0 33.17683,3.98305 37.91915,-2.36243 3.05845,-4.09226 -1.76526,-7.70008 -5.38844,-8.28892 -8.63273,-1.40299 -18.36358,-0.20095 -27.10456,-0.20095 h -90.88799 c -8.61646,0 -27.56335,-3.56062 -34.83247,1.39421 M 351.39242,691.83408 H 275.42634 189.9645 c -6.51873,0 -25.99121,-3.13392 -24.87611,8.08582 0.89204,8.9758 14.73967,6.83609 20.8065,6.83609 h 70.53993 70.53993 c 9.81577,0 23.1277,-2.44813 32.55689,0.0377 11.5564,3.04666 20.51738,16.41614 32.55689,20.71966 38.08687,13.61396 88.90883,-1.52479 103.09683,-42.46192 4.05181,6.61917 17.23225,20.83275 16.23655,28.48728 -1.12942,8.68245 -17.38494,18.5469 -13.91909,27.89902 1.35936,3.66795 6.7822,3.25265 9.89137,3.29611 7.11179,0.0994 28.10683,3.47415 32.51922,-3.13905 6.51699,-9.76763 -7.56412,-22.71526 -8.10155,-6.35153 H 511.4638 l 11.61428,-23.06113 -11.61428,-21.70459 h 20.34806 c 0.28341,3.63766 3.51438,11.65782 8.10254,5.95787 3.56737,-4.43177 1.37674,-13.51495 -4.11249,-15.02243 -11.15666,-3.0638 -26.33607,-0.4312 -37.90348,-0.4312 4.43019,-15.72814 6.7229,-29.91184 3.46039,-46.12227 -2.45035,-12.17505 -7.22555,-23.97914 -14.7732,-33.91239 -6.75834,-8.89445 -15.38217,-16.24702 -25.31369,-21.35395 -70.5747,-36.29047 -151.02803,41.47303 -109.87951,112.2409 m 67.82686,-110.8435 c 45.27541,-4.82108 77.45376,40.96598 71.48927,82.35622 -4.40543,30.57136 -31.68422,55.16778 -61.99351,58.10084 -61.13011,5.91564 -99.9282,-69.45389 -60.34182,-116.31051 12.96725,-15.34873 31.51383,-22.08799 50.84606,-24.14655 m 203.72542,23.75508 c -4.43601,1.70209 -6.15339,8.53703 -7.80836,12.47888 -5.04442,12.01459 -11.01563,24.17135 -14.87484,36.62547 -1.27352,4.10981 -0.29084,10.78171 5.7935,8.59874 4.46314,-1.60129 5.72337,-8.80039 7.23278,-12.66732 4.61006,-11.81074 10.47681,-23.21347 14.5022,-35.26996 1.23743,-3.70601 1.79429,-12.31333 -4.84528,-9.76581 m -234.92578,2.98312 25.77421,47.4788 h -20.34806 v 9.49576 c 8.16622,0 20.15721,-2.78329 23.06113,6.78269 h -23.06113 v 9.49576 h 21.70459 v 20.34805 h 12.20884 v -20.34805 h 21.70459 v -9.49576 H 427.3585 v -6.78269 h 21.70459 v -9.49576 h -18.99152 l 24.41767,-47.4788 c -18.49672,0.0142 -26.11384,23.86422 -32.55689,39.33958 -8.16307,-15.56661 -14.14015,-39.32431 -33.91343,-39.33958 m -288.942405,58.3311 c 9.355465,-0.007 13.535815,-0.85761 14.921905,-10.8523 h 14.92191 c 1.38609,9.99469 5.56648,10.84505 14.92191,10.8523 -3.40045,-14.69811 -9.04618,-29.03315 -13.59891,-43.40919 -1.6344,-5.16095 -3.68609,-12.08614 -10.64397,-10.39489 -5.29981,1.28818 -6.43739,8.66647 -7.73832,13.10796 -3.99857,13.65131 -8.38344,27.17037 -12.784525,40.69612 M 572.50797,628.07684 c -16.32937,0.0122 -16.50108,10.80498 0,10.85229 0.0231,8.04662 0.21583,14.20502 9.49576,14.92191 l 1.35654,-16.27844 c 15.69649,4.62754 17.41495,-9.4458 0,-9.49576 -0.60719,-16.51815 -10.7123,-16.70858 -10.8523,0 M 253.72174,615.868 v 10.8523 l -4.06961,-1.35654 v 8.13923 h 4.06961 c 0,8.07973 -2.46717,21.11549 1.59939,28.33968 2.14939,3.81837 11.34161,8.66714 13.78096,2.44934 1.52371,-3.88386 -2.5661,-7.21385 -3.73568,-10.56239 -1.9632,-5.62072 -0.79237,-12.98095 -0.79237,-18.8701 4.50545,-1.49063 5.07005,-3.51371 5.42615,-8.13922 h -5.42615 V 615.868 h -10.8523 m -107.16643,37.98304 c 1.74841,15.65363 28.06096,18.82295 28.40151,1.35654 0.13587,-6.96848 -17.01791,-16.62002 -14.99626,-19.35997 1.70113,-2.30554 12.46806,2.42681 15.08203,3.08152 -1.11262,-16.53229 -27.34593,-18.51324 -27.37044,-1.35653 -0.009,6.37483 17.98107,16.02463 15.27363,19.35057 -1.39429,1.71284 -13.224,-3.03442 -16.39047,-3.07213 m 33.91343,0 c 1.77333,15.78942 28.95599,18.9363 29.29744,1.35551 0.13711,-7.06068 -17.85273,-16.72336 -15.8922,-19.35997 1.2672,-1.70407 13.56479,1.71587 16.43858,1.72602 -4.2637,-13.23369 -29.70323,-18.04246 -29.07241,0.001 0.21676,6.19939 18.05137,16.37015 15.61906,19.34954 -1.39992,1.71483 -13.21995,-3.03437 -16.39047,-3.07213 m 59.68763,0 c -6.18912,5.81434 -11.25775,2.76445 -14.92191,-4.06961 4.97689,0 16.87135,2.18111 20.31039,-2.17506 8.01304,-10.15001 -6.59871,-22.89695 -16.24077,-22.07512 -19.06919,1.62534 -19.54907,35.77445 -2.71201,40.99859 8.81675,2.73563 23.93266,-3.40026 13.5643,-12.6788 m 52.90495,5.42615 -18.99152,-5.42615 c 2.76764,15.15134 28.9526,19.43043 29.43977,1.35654 0.25311,-9.39148 -17.57255,-13.00893 -16.37995,-18.62829 0.53386,-2.51532 13.9512,0.98328 16.784,0.99331 -4.22734,-12.05553 -26.56069,-19.1466 -28.22664,-1.35551 -1.19251,12.73529 15.58412,11.73776 17.37434,23.0601 m -170.92367,-31.20035 4.06961,17.63498 h -9.49576 l 5.42615,-17.63498 m 510.51538,2.74971 c -3.84727,2.68711 -1.28803,6.67028 2.33623,7.67134 4.83063,1.33426 16.90747,1.9265 21.18653,-0.96193 10.44235,-7.04892 -18.18736,-10.43599 -23.52276,-6.70941 m -396.56627,10.81566 h -10.8523 c 2.73642,-7.78199 9.39153,-9.15225 10.8523,0 m -133.86593,40.73378 c -5.469772,3.65 -3.144315,16.01871 -3.144315,21.66693 0,5.67685 -1.99221,16.43659 2.363465,20.88607 4.68669,4.78761 36.34495,4.54502 41.81399,0.78085 5.53461,-3.8093 3.30134,-15.9038 3.30134,-21.66692 0,-5.67695 1.99225,-16.43651 -2.36351,-20.88608 -4.74481,-4.84698 -36.39148,-4.50404 -41.97097,-0.78085 m 33.48218,9.45809 v 25.77421 h -25.7742 v -25.77421 h 25.7742 m 430.22318,1.39421 c -6.13352,3.64007 -3.73276,10.99305 2.53835,12.42452 19.56385,4.46555 46.18846,-0.25336 66.44414,-0.25336 5.72038,0 17.68219,2.21713 22.03328,-2.3635 7.2431,-7.6249 -6.15528,-11.16626 -11.18098,-11.20088 -18.98949,-0.13063 -37.98467,-9.9e-4 -56.97456,-9.9e-4 -6.4464,0 -17.12981,-2.00657 -22.86023,1.39421 m 2.57172,41.66542 c -7.0705,1.44579 -8.18172,10.32687 -1.33646,13.09641 5.71428,2.312 14.19793,0.81852 20.26843,0.81852 h 46.12226 c 6.12273,0 16.05231,1.85067 21.50261,-1.39421 6.95904,-4.14321 2.54459,-11.28135 -3.88851,-12.02362 -17.60813,-2.03148 -36.51025,-0.14754 -54.2406,-0.14754 -8.76933,0 -19.93363,-2.08656 -28.42773,-0.34956 m -399.9271,1.74377 c -5.94148,3.65588 -3.53301,11.18953 2.46179,12.93944 10.33389,3.01652 24.47636,0.58826 35.21034,0.58826 h 145.14948 40.69611 c 4.91348,-0.001 11.88229,0.93171 15.45363,-3.30134 4.3094,-5.10789 -0.64441,-10.57633 -5.96416,-11.41962 -13.36608,-2.11877 -28.51022,-0.20095 -42.04636,-0.20095 H 221.16485 c -12.92733,0 -41.53716,-5.40918 -52.59404,1.39421 m 433.78098,14.12433 c -62.3155,9.43226 -124.40341,29.18534 -185.84559,43.28565 -17.19004,3.94493 -34.38678,7.82527 -51.54841,11.89272 -8.30423,1.96824 -17.53455,2.88405 -24.35805,8.51611 -7.57705,6.25395 -9.26923,15.91845 -7.7582,25.24034 2.73104,16.848 7.80316,33.44323 11.15897,50.19188 2.40417,11.99885 3.59138,27.07112 9.34822,37.98196 4.70069,8.90922 12.82236,12.37865 22.46136,12.18896 22.27257,-0.43824 47.46439,-9.91031 69.18339,-15.05794 42.45446,-10.06226 84.99355,-19.74563 127.51449,-29.52562 19.55001,-4.4966 55.94237,-6.03331 70.39234,-20.6516 10.21405,-10.333 5.55407,-24.06885 2.69951,-36.48418 -5.38911,-23.43801 -6.75854,-54.66934 -18.07355,-75.96085 -4.95163,-9.31734 -15.10341,-13.1418 -25.17448,-11.61743 m -497.76961,11.26264 c -8.267045,3.45924 -8.616001,36.3276 -3.90628,43.17049 4.27035,6.20452 34.99705,5.39393 41.43192,2.29437 7.33875,-3.53483 7.1849,-37.51756 2.27243,-43.1705 -5.3691,-6.17843 -32.62226,-5.29706 -39.79807,-2.29436 m 499.12615,3.52945 c 10.53771,-0.84428 12.41421,9.06555 14.41429,17.16817 4.76443,19.30126 8.55364,38.89074 12.71645,58.3311 1.43969,6.72357 6.32784,17.90969 0.65426,23.7216 -4.41621,4.52392 -13.74159,5.37381 -19.64578,6.69682 -14.93751,3.34729 -29.79932,7.07115 -44.76573,10.27769 -44.89671,9.61904 -89.62095,20.45453 -134.29717,31.04338 -16.91515,4.00908 -41.03418,14.73735 -58.32588,13.01999 -9.22684,-0.91632 -10.04172,-11.06062 -11.63837,-18.28916 -4.395,-19.89814 -9.30724,-39.71697 -13.32667,-59.68764 -1.49141,-7.41011 -5.8331,-17.85438 2.04731,-22.93974 17.94912,-11.58282 50.97182,-12.39207 71.74785,-17.58473 40.04847,-10.00952 80.46913,-19.0744 120.7318,-28.18474 19.30755,-4.36884 39.96793,-11.99274 59.68764,-13.57274 m -468.00532,6.31587 v 25.77421 h -25.7742 v -25.77421 h 25.7742 m 35.32959,8.91586 c -6.64972,2.03489 -8.55263,10.40709 -1.3366,13.32675 10.05373,4.06778 27.10823,0.81853 37.90348,0.81853 h 85.46184 c 8.44541,0 32.31463,4.09477 38.51997,-2.17506 3.85426,-3.89434 1.09615,-9.8879 -3.32956,-11.73988 -7.78669,-3.25854 -20.07551,-1.00697 -28.40772,-1.00697 h -88.17492 c -12.34263,0 -28.78957,-2.84861 -40.63649,0.77663 m 394.69269,86.04174 c 12.01769,-2.33055 27.17537,-3.50601 36.37106,-12.4977 14.9972,-14.6645 7.25368,-49.51849 -7.90467,-61.57697 -7.94185,-6.31762 -36.72484,-8.65133 -43.22917,1.5868 -2.88918,4.54775 1.52106,14.76086 2.55394,19.58293 3.7694,17.59805 7.34032,35.5869 12.20884,52.90494 m -52.90495,12.20884 43.40919,-9.49576 -1.35654,-13.56537 -28.48728,6.78268 -5.42615,-18.99152 24.41767,-5.42615 c -2.17705,-16.74425 -14.58832,-10.30873 -27.13074,-6.78268 l -2.71308,-17.63498 27.13075,-5.42615 c -2.36509,-17.45085 -15.62337,-10.21535 -28.48728,-7.35838 -4.49941,0.99928 -14.74125,1.34802 -16.695,6.41317 -2.05973,5.34005 1.98307,14.58394 3.12962,19.93673 3.68676,17.21255 7.79811,34.50724 12.20884,51.54841 m 65.11378,-28.48728 -10.8523,-47.4788 c 26.64741,-9.97664 39.51335,43.18274 10.8523,47.4788 m -132.94064,-32.55689 16.27845,73.253 43.40919,-10.85229 -4.06962,-12.20884 -27.13074,5.42615 -12.20883,-59.68763 -16.27845,4.06961 m -27.13074,5.42615 c 0.80106,10.06499 3.67575,20.01273 5.90024,29.84381 1.53041,6.76364 2.83529,13.5547 4.20474,20.34806 1.13149,5.61294 1.8972,16.66651 5.9798,20.88085 3.16299,3.265 12.41906,1.91566 14.1746,-2.47238 1.57015,-3.92456 -1.20263,-10.40976 -2.05684,-14.33886 -2.8583,-13.14733 -6.26388,-26.23894 -9.368,-39.33958 -1.01268,-4.27386 -1.06403,-13.40855 -4.9143,-16.18736 -3.44102,-2.48348 -10.20665,0.49942 -13.92024,1.26546 m -51.54841,12.20883 c 1.88006,23.62158 8.67383,50.8328 16.27844,73.25301 l 14.92191,-2.71308 -6.78268,-29.84382 24.41766,-6.78268 -2.71307,-12.20884 -24.41767,5.42615 -4.06961,-17.63498 27.13074,-5.42615 -2.71307,-13.56537 -42.05265,9.49576 m -264.09247,6.82036 c -4.752421,3.20033 -2.14223,9.53335 2.36032,11.35264 7.06553,2.8549 18.15823,0.81852 25.69468,0.81852 h 112.59259 c 9.37397,0 37.64515,4.67908 43.92624,-3.14428 3.56133,-4.43582 0.27431,-9.40361 -4.64629,-10.22015 -9.88134,-1.63962 -21.12675,-0.20094 -31.14073,-0.20094 H 142.4857 c -9.80045,0 -32.01917,-4.15771 -40.26384,1.39421 m 1.23409,28.10004 c -6.852727,3.20289 -3.603007,11.60185 2.42942,13.32667 9.25221,2.64543 21.58841,0.58827 31.17418,0.58827 h 63.75725 c 7.89322,0 24.22931,3.07654 30.49807,-2.56859 12.73774,-11.47072 -14.60182,-12.35332 -19.64578,-12.35332 h -75.96608 c -9.02432,0 -23.97548,-2.85913 -32.24706,1.00697 z"
       id="path7" /></g></svg>
