<?xml version="1.0" encoding="UTF-8" standalone="no"?>
<!-- Created with Inkscape (http://www.inkscape.org/) -->

<svg
   width="951.91925"
   height="816.70685"
   viewBox="0 0 951.91925 816.70685"
   version="1.1"
   id="svg1"
   xml:space="preserve"
   xmlns="http://www.w3.org/2000/svg"
   xmlns:svg="http://www.w3.org/2000/svg"><defs
     id="defs1" /><g
     id="layer1"
     transform="translate(-31.81414,-21.816635)"><path
       style="display:inline;fill:#040404;stroke:none;stroke-width:1.96038"
       d="m 769.39815,87.162742 62.73227,54.890748 v 2.61384 l -84.72404,99.3261 -126.99737,154.21684 h -2.61387 c -18.55942,-26.66058 -41.87637,-50.43433 -62.20989,-75.8015 -15.90214,-19.83883 -31.63419,-42.58353 -58.02696,-48.30771 -46.76513,-10.14264 -72.51068,35.57859 -97.23256,66.60463 -39.54529,49.62942 -79.56385,98.9559 -118.60728,148.98916 -19.55657,25.06127 -38.05956,56.77509 -61.98399,77.78404 -13.81587,12.13227 -51.11441,-1.25634 -69.81749,1.41584 -59.589017,8.51379 -109.029816,56.68111 -116.866659,116.83845 -18.95091,145.47106 185.194029,213.90148 255.658589,83.64304 16.91238,-31.26364 20.6128,-70.68357 10.13065,-104.55379 -4.05955,-13.1174 -20.76838,-34.30695 -19.74502,-47.04922 1.38722,-17.27275 29.33209,-41.53794 39.83694,-54.89073 35.02524,-44.52085 70.24525,-88.91258 105.44724,-133.30607 19.05807,-24.03429 43.81619,-48.33783 57.49653,-75.8015 27.03788,23.59878 49.35806,55.81131 71.98563,83.64302 13.41537,16.50083 26.21305,35.34358 48.25121,40.43794 43.61518,10.0821 66.62493,-23.96377 91.27476,-53.50716 42.14532,-50.51204 83.91513,-101.37064 126.39234,-151.60299 22.17819,-26.22729 51.4655,-53.06886 67.24196,-83.64303 L 954.98111,243.99343 983.7334,21.816635 769.39815,87.162742 M 758.94276,400.8241 c -12.34987,12.90535 -30.77346,29.95167 -36.86406,47.04922 -5.4403,15.27187 1.24397,38.40218 0.0344,54.89072 -2.23334,30.44095 -19.84458,59.00009 -40.08297,80.79523 -91.95654,99.02976 -244.46721,20.29775 -249.81781,-104.31982 h -2.61385 c -12.05357,15.99377 -37.6053,37.56549 -41.65414,57.50459 -3.0135,14.84048 10.90545,37.44287 18.16987,49.66304 27.40343,46.09806 73.51994,79.4363 125.42419,92.14203 116.15457,28.43368 245.5035,-60.27921 245.70142,-183.6266 0.0506,-31.49702 -0.15174,-66.76734 -18.29693,-94.09841 M 160.37241,642.08442 c 80.76284,-11.79863 95.26223,114.0513 13.06922,123.85507 C 95.515535,775.23432 82.341485,653.4839 160.37241,642.08442 Z"
       id="path1" /></g></svg>
