<?xml version="1.0" encoding="UTF-8" standalone="no"?>
<!-- Created with Inkscape (http://www.inkscape.org/) -->

<svg
   width="1080"
   height="400"
   viewBox="0 0 285.74999 105.83333"
   version="1.1"
   id="svg1"
   xml:space="preserve"
   sodipodi:docname="logo_horiz.svg"
   inkscape:version="1.4.2 (ebf0e940, 2025-05-08)"
   xmlns:inkscape="http://www.inkscape.org/namespaces/inkscape"
   xmlns:sodipodi="http://sodipodi.sourceforge.net/DTD/sodipodi-0.dtd"
   xmlns:xlink="http://www.w3.org/1999/xlink"
   xmlns="http://www.w3.org/2000/svg"
   xmlns:svg="http://www.w3.org/2000/svg"><sodipodi:namedview
     id="namedview1"
     pagecolor="#ffffff"
     bordercolor="#000000"
     borderopacity="0.25"
     inkscape:showpageshadow="2"
     inkscape:pageopacity="0.0"
     inkscape:pagecheckerboard="0"
     inkscape:deskcolor="#d1d1d1"
     inkscape:zoom="0.54037099"
     inkscape:cx="615.31801"
     inkscape:cy="50.890963"
     inkscape:window-width="1512"
     inkscape:window-height="916"
     inkscape:window-x="0"
     inkscape:window-y="38"
     inkscape:window-maximized="1"
     inkscape:current-layer="svg1" /><defs
     id="defs1"><linearGradient
       id="swatch7"><stop
         style="stop-color:#000000;stop-opacity:0.99961799;"
         offset="0"
         id="stop7" /></linearGradient><linearGradient
       id="swatch6"><stop
         style="stop-color:#02ad48;stop-opacity:1;"
         offset="0"
         id="stop6" /></linearGradient><linearGradient
       xlink:href="#swatch6"
       id="linearGradient3"
       gradientUnits="userSpaceOnUse"
       gradientTransform="translate(0,-97.753858)"
       x1="194.78873"
       y1="128.38303"
       x2="216.29984"
       y2="128.38303" /></defs><g
     id="g6"
     style="display:inline"><path
       style="font-weight:bold;font-size:31.0444px;line-height:0;font-family:MuseoModerno;-inkscape-font-specification:'MuseoModerno Bold';letter-spacing:-2.11667px;word-spacing:0px;text-orientation:upright;fill-opacity:0.999618;stroke-width:1.32292"
       d="m 24.868702,78.456543 q -1.986841,0 -3.508017,-0.869243 Q 19.870554,76.687012 19.001311,75.196881 18.163112,73.70675 18.163112,71.87513 V 61.071679 h -5.898436 v -4.346216 h 16.981287 v 4.346216 h -5.867392 v 11.269117 q 0,0.714021 0.496711,1.241776 0.49671,0.527755 1.241776,0.527755 H 26.8245 v 4.346216 z m 4.619954,0 v -21.73108 h 9.934208 q 2.204152,0 4.004727,0.962377 1.83162,0.962376 2.88713,2.669818 1.086554,1.707442 1.086554,3.942639 0,2.079975 -0.993421,3.756372 -0.993421,1.645353 -2.60773,2.669819 l 1.738487,2.949217 q 0.155222,0.217311 0.341488,0.341489 0.217311,0.124177 0.558799,0.124177 h 1.924753 v 4.315172 H 45.3213 q -1.396998,0 -2.545641,-0.651932 -1.148643,-0.682977 -1.800575,-1.769531 l -2.32833,-4.128905 q -0.217311,0 -0.465666,0 -0.217311,0 -0.465666,0 h -3.011307 v 6.550368 z m 5.215459,-10.86554 h 4.128905 q 0.900288,0 1.676398,-0.372533 0.77611,-0.403577 1.210731,-1.117598 0.465666,-0.745066 0.465666,-1.769531 0,-1.024465 -0.465666,-1.738486 -0.465666,-0.745066 -1.241775,-1.117598 -0.745066,-0.403578 -1.645354,-0.403578 h -4.128905 z m 11.853337,10.86554 7.047079,-19.216483 q 0.527755,-1.428043 1.738486,-2.142064 1.210732,-0.745065 2.731907,-0.745065 1.521176,0 2.731907,0.714021 1.210732,0.682977 1.738487,2.142063 l 7.078123,19.247528 h -5.619036 l -1.365954,-4.190994 h -9.220187 l -1.428042,4.190994 z m 8.195722,-8.506165 h 6.550368 L 58.54059,61.28899 q -0.06209,-0.186266 -0.186266,-0.248355 -0.09313,-0.09313 -0.248355,-0.09313 -0.155222,0 -0.2794,0.09313 -0.09313,0.09313 -0.124177,0.248355 z m 24.27105,8.506165 q -2.669819,0 -4.811882,-0.807154 -2.142064,-0.838199 -3.632195,-2.32833 -1.490131,-1.490132 -2.297286,-3.445929 -0.807154,-1.986841 -0.807154,-4.284127 0,-2.297285 0.807154,-4.253082 0.807155,-1.986842 2.297286,-3.476973 1.521175,-1.490131 3.632195,-2.297286 2.142063,-0.838199 4.811882,-0.838199 h 3.352795 v 4.346216 h -3.228618 q -1.459087,0 -2.669818,0.496711 -1.179687,0.49671 -2.048931,1.396998 -0.838198,0.869243 -1.303864,2.04893 -0.434622,1.179687 -0.434622,2.576685 0,1.396998 0.434622,2.576685 0.465666,1.179688 1.303864,2.079975 0.869244,0.869243 2.048931,1.365954 1.210731,0.49671 2.669818,0.49671 h 3.228618 v 4.346216 z m 4.185317,0 v -21.73108 h 5.21546 v 8.785565 h 3.60115 q 0.900287,0 1.645353,-0.372532 0.77611,-0.372533 1.210732,-1.117599 0.434621,-0.745065 0.434621,-1.738486 v -5.556948 h 5.215463 v 5.587992 q 0,2.079975 -0.993425,3.725328 -0.99342,1.645353 -2.607729,2.638774 l 2.359374,4.967104 q 0.09313,0.248355 0.310444,0.372533 0.248355,0.124177 0.527756,0.124177 h 1.9558 v 4.315172 h -3.011311 q -1.707441,0 -2.762951,-0.651932 -1.05551,-0.651933 -1.614309,-1.800576 l -2.949218,-6.146791 q -0.248355,0 -0.465666,0 -0.217311,0 -0.465666,0 h -2.390418 v 8.599299 z m 24.705689,0 q -1.83161,0 -3.32175,-0.838199 -1.49013,-0.869243 -2.39041,-2.297285 -0.86925,-1.459087 -0.86925,-3.290707 0,-1.365953 0.58985,-2.54564 0.62088,-1.210732 1.64535,-2.079975 -0.99342,-0.838199 -1.58327,-1.986842 -0.55879,-1.148642 -0.55879,-2.421463 0,-1.800575 0.86924,-3.197573 0.86924,-1.428042 2.32833,-2.235197 1.45909,-0.838199 3.22862,-0.838199 h 9.15809 v 4.346216 h -8.35094 q -0.58984,0 -1.08655,0.2794 -0.49671,0.2794 -0.80716,0.745066 -0.2794,0.465666 -0.2794,1.086554 0,0.589843 0.2794,1.086554 0.31045,0.465665 0.80716,0.745065 0.49671,0.248355 1.08655,0.248355 h 7.29543 v 4.346216 h -7.14021 q -0.65193,0 -1.17968,0.310444 -0.52776,0.310444 -0.8382,0.807155 -0.31045,0.49671 -0.31045,1.148642 0,0.620888 0.31045,1.148643 0.31044,0.49671 0.8382,0.77611 0.52775,0.2794 1.17968,0.2794 h 8.19572 v 4.37726 z m 10.08378,0 v -21.73108 h 9.93421 q 2.20415,0 4.00472,0.962377 1.83162,0.962376 2.88713,2.669818 1.08656,1.707442 1.08656,3.942639 0,2.079975 -0.99342,3.756372 -0.99342,1.645353 -2.60773,2.669819 l 1.73848,2.949217 q 0.15522,0.217311 0.34149,0.341489 0.21731,0.124177 0.5588,0.124177 h 1.92475 v 4.315172 h -3.04235 q -1.397,0 -2.54564,-0.651932 -1.14864,-0.682977 -1.80057,-1.769531 l -2.32833,-4.128905 q -0.21731,0 -0.46567,0 -0.21731,0 -0.46567,0 h -3.0113 v 6.550368 z m 5.21546,-10.86554 h 4.1289 q 0.90029,0 1.6764,-0.372533 0.77611,-0.403577 1.21073,-1.117598 0.46567,-0.745066 0.46567,-1.769531 0,-1.024465 -0.46567,-1.738486 -0.46566,-0.745066 -1.24177,-1.117598 -0.74507,-0.403578 -1.64536,-0.403578 h -4.1289 z"
       id="text4"
       aria-label="TRACKER" /><g
       id="layer1"
       transform="matrix(0.46739024,0,0,0.46739024,132.09817,9.8678524)"
       style="display:inline"><g
         id="layer3"
         style="display:inline"><rect
           style="fill:#02ad48;stroke-width:1.15967"
           id="rect1"
           width="58.581387"
           height="6.2689543"
           x="-82.581757"
           y="130.87149"
           transform="matrix(0.70357992,-0.71061614,0.62690724,0.77909391,0,0)" /><path
           id="rect1-2"
           style="fill:#02ad48;stroke-width:1.17299"
           transform="matrix(0.75801942,-0.65223197,0.68665442,0.72698398,0,0)"
           d="m 66.699051,233.84322 91.855689,-29.33665 v 6.28886 l -91.855689,29.33665 z" /><rect
           style="fill:#02ad48;stroke-width:1.32292"
           id="rect2"
           width="58.894947"
           height="4.9733515"
           x="131.67801"
           y="45.487709"
           transform="rotate(38.949866)" /><path
           id="rect2-8"
           style="fill:#02ad48;stroke-width:1.32292"
           transform="rotate(36.509861)"
           d="m 199.80881,-23.472654 53.38812,3.927471 v 4.782562 l -53.38812,-3.927471 z" /><path
           id="rect2-6"
           style="fill:#02ad48;stroke-width:1.38474"
           transform="matrix(0.72749812,-0.68610969,0.72524078,0.68849534,0,0)"
           d="m -25.484232,195.09479 69.730006,-3.6572 v 5.20527 l -69.730006,3.6572 z" /></g><g
         id="layer2"
         style="display:inline"><circle
           style="fill:#02ad48;stroke-width:1.32292"
           id="path1"
           cx="21.6355"
           cy="166.922"
           r="7.8052125" /><circle
           style="fill:#02ad48;stroke-width:1.32292"
           id="path1-6"
           cx="70.850807"
           cy="118.90749"
           r="7.8052125" /><circle
           style="fill:#02ad48;stroke-width:1.32292"
           id="path1-6-0"
           cx="119.35933"
           cy="157.76276"
           r="7.8052125" /><circle
           style="display:inline;fill:#02ad48;stroke-width:1.32292"
           id="path1-6-0-9"
           cx="173.23192"
           cy="102.55027"
           r="7.8052125" /><circle
           style="fill:#02ad48;stroke-width:1.32292"
           id="path1-6-0-4-0"
           cx="207.76717"
           cy="132.81058"
           r="7.8052125" /><circle
           style="fill:#02ad48;stroke-width:1.32292"
           id="path1-6-0-4-0-7"
           cx="262.24161"
           cy="46.484688"
           r="7.8052125" /></g></g><path
       style="font-weight:bold;font-size:52.2111px;line-height:0;font-family:MuseoModerno;-inkscape-font-specification:'MuseoModerno Bold';letter-spacing:-4.7625px;word-spacing:0px;text-orientation:upright;fill-opacity:0.999618;stroke-width:1.32292"
       d="M 11.765905,48.903019 V 12.355248 h 15.715542 q 3.654777,0 6.683021,1.670755 3.080455,1.670755 4.907843,4.646788 1.827389,2.923822 1.827389,6.787443 0,3.863622 -1.827389,6.891866 -1.827388,2.976033 -4.855632,4.646788 -3.028244,1.670755 -6.735232,1.670755 H 20.53737 V 48.903019 Z M 20.53737,31.307878 h 5.952066 q 1.566333,0 2.819399,-0.678745 1.253067,-0.678744 2.036233,-1.984021 0.783167,-1.305278 0.783167,-3.132667 0,-1.827388 -0.783167,-3.132666 -0.783166,-1.305277 -2.088444,-1.984021 -1.253066,-0.730956 -2.767188,-0.730956 H 20.53737 Z m 37.789499,18.273885 q -4.385732,0 -7.936087,-1.461911 -3.550355,-1.46191 -6.108699,-4.072465 -2.558344,-2.610556 -3.968044,-6.056488 -1.357488,-3.445933 -1.357488,-7.413977 0,-3.968043 1.357488,-7.413976 1.4097,-3.445933 3.915833,-6.004277 2.558344,-2.610555 6.108699,-4.020255 3.602566,-1.46191 7.988298,-1.46191 4.333522,0 7.883877,1.46191 3.602566,1.4097 6.108698,4.020255 2.558344,2.558344 3.968044,6.056488 1.4097,3.445933 1.4097,7.361765 0,3.968044 -1.4097,7.413977 -1.4097,3.445932 -3.968044,6.056488 -2.506132,2.610555 -6.108698,4.072465 -3.550355,1.461911 -7.883877,1.461911 z m 0,-7.466187 q 2.297289,0 4.229099,-0.835378 1.984022,-0.887589 3.393722,-2.453922 1.4097,-1.566333 2.192866,-3.654777 0.783167,-2.140655 0.783167,-4.594577 0,-2.453921 -0.783167,-4.542366 -0.783166,-2.088444 -2.192866,-3.654777 -1.4097,-1.566333 -3.393722,-2.40171 -1.93181,-0.887589 -4.229099,-0.887589 -2.349499,0 -4.28131,0.887589 -1.931811,0.835377 -3.393722,2.40171 -1.409699,1.566333 -2.192866,3.706989 -0.730955,2.088444 -0.730955,4.490154 0,2.453922 0.730955,4.594577 0.783167,2.088444 2.192866,3.654777 1.461911,1.566333 3.393722,2.453922 1.931811,0.835378 4.28131,0.835378 z m 19.254596,6.787443 V 12.355248 h 16.707552 q 3.706988,0 6.735233,1.618544 3.08045,1.618544 4.85563,4.490155 1.82739,2.87161 1.82739,6.63081 0,3.498143 -1.67076,6.317543 -1.67075,2.767188 -4.38573,4.490155 l 2.92382,4.960054 q 0.26106,0.365478 0.57433,0.574322 0.36547,0.208845 0.9398,0.208845 h 3.23708 v 7.257343 h -5.11668 q -2.3495,0 -4.281314,-1.096433 -1.931811,-1.148644 -3.028244,-2.976033 L 92.98374,37.886477 q -0.365478,0 -0.783167,0 -0.365478,0 -0.783167,0 H 86.35293 V 48.903019 Z M 86.35293,30.629133 h 6.944076 q 1.514122,0 2.8194,-0.626533 1.305277,-0.678744 2.036233,-1.879599 0.783166,-1.253067 0.783166,-2.976033 0,-1.722967 -0.783166,-2.923822 -0.783167,-1.253066 -2.088444,-1.8796 -1.253067,-0.678744 -2.767189,-0.678744 H 86.35293 Z m 40.97443,18.273886 q -3.34151,0 -5.89986,-1.461911 -2.50613,-1.514122 -3.96804,-4.020255 -1.4097,-2.506133 -1.4097,-5.586588 V 19.664802 h -9.92011 v -7.309554 h 28.55947 v 7.309554 h -9.86789 v 18.95263 q 0,1.200855 0.83537,2.088444 0.83538,0.887589 2.08845,0.887589 h 2.87161 v 7.309554 z m 6.09739,0 V 23.162946 q 0,-3.028244 1.46191,-5.482166 1.51412,-2.453922 4.02026,-3.863621 2.55834,-1.461911 5.69101,-1.461911 h 13.62709 v 7.309554 h -12.53066 q -1.46191,0 -2.50613,1.044222 -0.99201,1.044222 -0.99201,2.558344 v 5.273321 h 14.25363 v 7.257343 h -14.25363 v 13.104987 z m 42.4885,0.678744 q -4.38573,0 -7.93608,-1.461911 -3.55036,-1.46191 -6.1087,-4.072465 -2.55835,-2.610556 -3.96805,-6.056488 -1.35749,-3.445933 -1.35749,-7.413977 0,-3.968043 1.35749,-7.413976 1.4097,-3.445933 3.91584,-6.004277 2.55834,-2.610555 6.10869,-4.020255 3.60257,-1.46191 7.9883,-1.46191 4.33352,0 7.88388,1.46191 3.60257,1.4097 6.1087,4.020255 2.55834,2.558344 3.96804,6.056488 1.4097,3.445933 1.4097,7.361765 0,3.968044 -1.4097,7.413977 -1.4097,3.445932 -3.96804,6.056488 -2.50613,2.610555 -6.1087,4.072465 -3.55036,1.461911 -7.88388,1.461911 z m 0,-7.466187 q 2.29729,0 4.2291,-0.835378 1.98402,-0.887589 3.39372,-2.453922 1.4097,-1.566333 2.19287,-3.654777 0.78317,-2.140655 0.78317,-4.594577 0,-2.453921 -0.78317,-4.542366 -0.78317,-2.088444 -2.19287,-3.654777 -1.4097,-1.566333 -3.39372,-2.40171 -1.93181,-0.887589 -4.2291,-0.887589 -2.3495,0 -4.28131,0.887589 -1.93181,0.835377 -3.39372,2.40171 -1.4097,1.566333 -2.19287,3.706989 -0.73095,2.088444 -0.73095,4.490154 0,2.453922 0.73095,4.594577 0.78317,2.088444 2.19287,3.654777 1.46191,1.566333 3.39372,2.453922 1.93181,0.835378 4.28131,0.835378 z"
       id="text3"
       aria-label="PORTFO" /><path
       style="font-weight:bold;font-size:52.2111px;line-height:0;font-family:MuseoModerno;-inkscape-font-specification:'MuseoModerno Bold';letter-spacing:-4.7625px;word-spacing:0px;text-orientation:upright;fill-opacity:0.999618;stroke-width:1.32292"
       d="m 214.69238,48.903019 v -7.309554 h 6.31754 V 19.664802 h -6.31754 v -7.309554 h 21.35434 v 7.309554 h -6.31754 v 21.928663 h 6.31754 v 7.309554 z m 39.82581,0.678744 q -4.38573,0 -7.93609,-1.461911 -3.55035,-1.46191 -6.1087,-4.072465 -2.55834,-2.610556 -3.96804,-6.056488 -1.35749,-3.445933 -1.35749,-7.413977 0,-3.968043 1.35749,-7.413976 1.4097,-3.445933 3.91583,-6.004277 2.55834,-2.610555 6.1087,-4.020255 3.60257,-1.46191 7.9883,-1.46191 4.33352,0 7.88387,1.46191 3.60257,1.4097 6.1087,4.020255 2.55835,2.558344 3.96805,6.056488 1.4097,3.445933 1.4097,7.361765 0,3.968044 -1.4097,7.413977 -1.4097,3.445932 -3.96805,6.056488 -2.50613,2.610555 -6.1087,4.072465 -3.55035,1.461911 -7.88387,1.461911 z m 0,-7.466187 q 2.29729,0 4.2291,-0.835378 1.98402,-0.887589 3.39372,-2.453922 1.4097,-1.566333 2.19286,-3.654777 0.78317,-2.140655 0.78317,-4.594577 0,-2.453921 -0.78317,-4.542366 -0.78316,-2.088444 -2.19286,-3.654777 -1.4097,-1.566333 -3.39372,-2.40171 -1.93181,-0.887589 -4.2291,-0.887589 -2.3495,0 -4.28131,0.887589 -1.93181,0.835377 -3.39372,2.40171 -1.4097,1.566333 -2.19287,3.706989 -0.73096,2.088444 -0.73096,4.490154 0,2.453922 0.73096,4.594577 0.78317,2.088444 2.19287,3.654777 1.46191,1.566333 3.39372,2.453922 1.93181,0.835378 4.28131,0.835378 z"
       id="text8"
       aria-label="IO" /><path
       style="font-weight:bold;font-size:52.2111px;line-height:0;font-family:MuseoModerno;-inkscape-font-specification:'MuseoModerno Bold';letter-spacing:-4.7625px;word-spacing:0px;text-orientation:upright;fill:url(#linearGradient3);stroke-width:1.32292"
       d="m 206.11864,48.903019 q -3.39372,0 -5.95207,-1.514122 -2.55834,-1.514122 -3.96804,-4.020255 -1.4097,-2.506133 -1.4097,-5.534377 V 12.355248 h 8.77146 v 26.105551 q 0,1.253066 0.88759,2.192866 0.88759,0.9398 2.19287,0.9398 h 9.65905 v 7.309554 z"
       id="text6"
       aria-label="L" /></g></svg>
