<?xml version="1.0" encoding="UTF-8" standalone="no"?>
<!-- Created with Inkscape (http://www.inkscape.org/) -->

<svg
   width="600"
   height="160"
   viewBox="0 0 158.74999 42.333333"
   version="1.1"
   id="svg1"
   xml:space="preserve"
   xmlns="http://www.w3.org/2000/svg"
   xmlns:svg="http://www.w3.org/2000/svg"><defs
     id="defs1"><linearGradient
       id="swatch7"
       gradientTransform="translate(145.08171,-3.7041668)"><stop
         style="stop-color:#000000;stop-opacity:0.99961799;"
         offset="0"
         id="stop7" /></linearGradient><linearGradient
       id="swatch6"
       gradientTransform="matrix(0.03890247,0,0,0.00552672,-15.014917,-0.71246956)"><stop
         style="stop-color:#02ad48;stop-opacity:1;"
         offset="0"
         id="stop6" /></linearGradient></defs><g
     id="layer4"><g
       id="text10"
       style="font-size:31.1312px;line-height:1.4;font-family:Arial;-inkscape-font-specification:Arial;letter-spacing:0px;word-spacing:0px;text-orientation:upright;fill:#c66f54;stroke:#616161;stroke-width:0.648568"
       aria-label="tradeGIST"><path
         style="font-family:'Plus Jakarta Sans';-inkscape-font-specification:'Plus Jakarta Sans';fill:url(#swatch7);stroke:none"
         d="m 12.224997,32.669316 q -2.2414466,0 -3.4555635,-1.307511 -1.2141168,-1.30751 -1.2141168,-3.735744 V 18.131045 H 4.4733278 v -2.33484 h 0.77828 q 1.0584609,0 1.6810849,-0.684886 0.622624,-0.716018 0.622624,-1.774479 v -1.400904 h 2.3348401 v 3.860269 h 3.6734812 v 2.33484 H 9.8901568 v 9.495016 q 0,0.840543 0.2490492,1.494298 0.24905,0.622624 0.840543,0.996198 0.622624,0.373575 1.649953,0.373575 0.24905,0 0.591493,-0.03113 0.342443,-0.03113 0.591493,-0.06226 v 2.085791 q -0.373574,0.09339 -0.840542,0.124524 -0.466968,0.06226 -0.747149,0.06226 z m 5.697025,-0.186787 V 15.796205 h 2.33484 v 2.739546 L 19.94555,18.131045 q 0.591493,-1.182986 1.774478,-1.867872 1.214117,-0.684886 2.926333,-0.684886 h 1.058461 v 2.33484 h -1.463166 q -1.80561,0 -2.895202,1.120723 -1.089592,1.120723 -1.089592,3.175382 v 10.273297 z m 15.347661,0.373574 q -1.587692,0 -2.83294,-0.591493 -1.245248,-0.622624 -1.961265,-1.681085 -0.716018,-1.05846 -0.716018,-2.428233 0,-1.307511 0.560362,-2.365971 0.560361,-1.089593 1.743347,-1.836741 1.182986,-0.747149 3.019726,-1.058461 l 6.537553,-1.089592 v 2.116921 l -5.977191,0.996199 q -1.80561,0.311312 -2.615021,1.151854 -0.77828,0.840543 -0.77828,1.992397 0,1.120723 0.871674,1.899003 0.902805,0.77828 2.303709,0.77828 1.712216,0 2.988595,-0.716017 1.276379,-0.747149 1.992397,-1.992397 0.716017,-1.245248 0.716017,-2.770677 v -4.233843 q 0,-1.494298 -1.089592,-2.428234 -1.089592,-0.933936 -2.832939,-0.933936 -1.525429,0 -2.677283,0.77828 -1.151855,0.747149 -1.712216,1.961266 l -2.116922,-1.151855 q 0.466968,-1.05846 1.463167,-1.930134 1.027329,-0.871674 2.33484,-1.369773 1.30751,-0.52923 2.708414,-0.52923 1.836741,0 3.237645,0.716017 1.432035,0.716018 2.210315,1.992397 0.809411,1.245248 0.809411,2.895202 v 11.456282 h -2.33484 V 29.15149 l 0.342444,0.342443 q -0.435837,0.933936 -1.369773,1.712216 -0.902805,0.747149 -2.148053,1.214117 -1.214117,0.435837 -2.677283,0.435837 z m 20.515478,0 q -2.33484,0 -4.202712,-1.120723 -1.867872,-1.151855 -2.957464,-3.11312 -1.058461,-1.992397 -1.058461,-4.482893 0,-2.521627 1.058461,-4.482893 1.089592,-1.961266 2.926333,-3.081989 1.867872,-1.151854 4.233843,-1.151854 2.148053,0 3.829138,0.933936 1.681085,0.933936 2.646152,2.521627 l -0.373574,0.653755 V 8.9162097 h 2.33484 V 32.482529 h -2.33484 v -3.735744 l 0.373574,0.342443 q -0.871674,1.805609 -2.615021,2.801808 -1.712216,0.965067 -3.860269,0.965067 z m 0.124525,-2.33484 q 1.681085,0 3.019726,-0.840542 1.369773,-0.840543 2.148053,-2.272578 0.809412,-1.463166 0.809412,-3.268776 0,-1.80561 -0.809412,-3.237645 -0.77828,-1.463166 -2.148053,-2.303709 -1.338641,-0.840542 -3.019726,-0.840542 -1.649954,0 -2.988595,0.840542 -1.338642,0.840543 -2.116922,2.272578 -0.747149,1.432035 -0.747149,3.268776 0,1.80561 0.747149,3.268776 0.77828,1.432035 2.085791,2.272578 1.338641,0.840542 3.019726,0.840542 z m 20.702241,2.33484 q -2.33484,0 -4.233843,-1.120723 -1.867872,-1.151855 -2.957464,-3.144251 -1.089592,-1.992397 -1.089592,-4.514025 0,-2.521627 1.05846,-4.451761 1.058461,-1.961266 2.864071,-3.081989 1.836741,-1.120723 4.109318,-1.120723 1.80561,0 3.206514,0.684886 1.432035,0.653755 2.428234,1.80561 0.996198,1.120723 1.525429,2.552758 0.52923,1.400904 0.52923,2.895202 0,0.311312 -0.03113,0.716017 -0.03113,0.373575 -0.09339,0.77828 H 67.825325 V 22.6762 h 12.763793 l -1.120724,0.933936 q 0.280181,-1.712216 -0.404705,-3.050857 -0.653755,-1.369773 -1.899003,-2.148053 -1.245249,-0.809411 -2.801809,-0.809411 -1.55656,0 -2.895201,0.809411 -1.307511,0.809411 -2.054659,2.272578 -0.747149,1.432035 -0.591493,3.424432 -0.155656,1.992397 0.622624,3.486694 0.809411,1.463167 2.179184,2.272578 1.400904,0.809411 2.988595,0.809411 1.836741,0 3.081989,-0.871674 1.245248,-0.871673 2.023528,-2.179184 l 1.992397,1.058461 q -0.498099,1.120723 -1.525429,2.085791 -1.02733,0.933936 -2.459365,1.525428 -1.400904,0.560362 -3.11312,0.560362 z"
         id="path10" /><path
         style="font-weight:bold;font-family:'Plus Jakarta Sans';-inkscape-font-specification:'Plus Jakarta Sans Bold';fill:url(#swatch6);stroke:none"
         d="m 96.995255,32.856103 q -2.490496,0 -4.607417,-0.902805 -2.116922,-0.902805 -3.704613,-2.521627 -1.587692,-1.618822 -2.490496,-3.798006 -0.871674,-2.179185 -0.871674,-4.763074 0,-2.58389 0.840542,-4.763074 0.871674,-2.210315 2.428234,-3.798006 1.587691,-1.618823 3.704613,-2.4904965 2.116922,-0.9028048 4.607418,-0.9028048 2.490496,0 4.451758,0.8405424 1.9924,0.8405429 3.36217,2.2414469 1.36978,1.369772 1.96127,3.019726 l -3.76688,1.80561 q -0.65375,-1.80561 -2.21031,-2.926333 -1.556562,-1.120723 -3.798008,-1.120723 -2.179184,0 -3.860269,1.027329 -1.649954,1.02733 -2.58389,2.832939 -0.902805,1.80561 -0.902805,4.233844 0,2.428233 0.933936,4.264974 0.965067,1.80561 2.646152,2.83294 1.681085,1.027329 3.860269,1.027329 1.774479,0 3.268775,-0.684886 1.4943,-0.716018 2.3971,-1.992397 0.90281,-1.307511 0.90281,-3.081989 v -1.774478 l 1.93013,1.681084 H 96.901862 V 19.56308 h 10.895918 v 2.33484 q 0,2.677284 -0.9028,4.731943 -0.90281,2.054659 -2.45937,3.455563 -1.52543,1.369773 -3.45556,2.085791 -1.930136,0.684886 -3.984795,0.684886 z M 111.15997,32.482529 V 9.2897841 h 4.23384 V 32.482529 Z m 16.96649,0.373574 q -2.21032,0 -4.10932,-0.809411 -1.86787,-0.809411 -3.23765,-2.241447 -1.33864,-1.463166 -1.96126,-3.3933 l 3.51782,-1.525429 q 0.84054,1.992397 2.42824,3.144251 1.58769,1.120723 3.58008,1.120723 1.12073,0 1.93014,-0.342443 0.84054,-0.373574 1.27638,-0.996198 0.46697,-0.622624 0.46697,-1.494298 0,-1.02733 -0.62263,-1.681085 -0.59149,-0.684886 -1.80561,-1.058461 l -4.45176,-1.432035 q -2.70841,-0.840542 -4.07819,-2.521627 -1.36977,-1.681085 -1.36977,-3.953663 0,-1.992397 0.96507,-3.517825 0.9962,-1.525429 2.73954,-2.3659717 1.77448,-0.8716736 4.04706,-0.8716736 2.08579,0 3.82914,0.7471488 1.74334,0.7160175 2.98859,2.0235285 1.27638,1.276379 1.89901,3.019726 l -3.4867,1.55656 q -0.68489,-1.743347 -2.05466,-2.677283 -1.36977,-0.965067 -3.17538,-0.965067 -1.05846,0 -1.86787,0.373574 -0.80941,0.342443 -1.27638,0.996198 -0.43584,0.622624 -0.43584,1.494298 0,0.965067 0.62263,1.712216 0.62262,0.716018 1.899,1.120723 l 4.26497,1.338642 q 2.77068,0.902805 4.14045,2.490496 1.40091,1.587691 1.40091,3.922531 0,1.992397 -1.02733,3.517826 -1.02733,1.525429 -2.83294,2.397102 -1.80561,0.871674 -4.20271,0.871674 z m 15.97028,-0.373574 V 13.025528 h -6.00833 V 9.2897841 h 16.18823 v 3.7357439 h -5.91493 v 19.457001 z"
         id="path11" /></g></g></svg>
