<?xml version="1.0" encoding="UTF-8" standalone="no"?>
<!-- Created with Inkscape (http://www.inkscape.org/) -->

<svg
   width="1080"
   height="330"
   viewBox="0 0 285.74999 87.3125"
   version="1.1"
   id="svg1"
   xml:space="preserve"
   xmlns:xlink="http://www.w3.org/1999/xlink"
   xmlns="http://www.w3.org/2000/svg"
   xmlns:svg="http://www.w3.org/2000/svg"><defs
     id="defs1"><linearGradient
       id="swatch7"><stop
         style="stop-color:#000000;stop-opacity:0.99961799;"
         offset="0"
         id="stop7" /></linearGradient><linearGradient
       id="swatch6"><stop
         style="stop-color:#02ad48;stop-opacity:1;"
         offset="0"
         id="stop6" /></linearGradient><linearGradient
       xlink:href="#swatch6"
       id="linearGradient6"
       x1="137.90114"
       y1="152.27118"
       x2="257.55078"
       y2="152.27118"
       gradientUnits="userSpaceOnUse" /><linearGradient
       xlink:href="#swatch6"
       id="linearGradient3"
       gradientUnits="userSpaceOnUse"
       x1="194.78873"
       y1="128.38303"
       x2="216.29984"
       y2="128.38303" /></defs><g
     id="g6"
     style="display:inline"><g
       id="g1"
       transform="translate(0,-97.753858)"><text
         xml:space="preserve"
         style="font-size:31.0444px;line-height:0;font-family:Monaco;-inkscape-font-specification:Monaco;text-align:start;letter-spacing:-2.11667px;word-spacing:0px;writing-mode:lr-tb;direction:ltr;text-orientation:upright;text-anchor:start;fill:#000000;fill-opacity:0.999618;stroke-width:1.32292"
         x="11.79901"
         y="176.2104"
         id="text4"><tspan
           id="tspan4"
           style="font-style:normal;font-variant:normal;font-weight:bold;font-stretch:normal;font-size:31.0444px;font-family:MuseoModerno;-inkscape-font-specification:'MuseoModerno Bold';letter-spacing:-2.11667px;stroke-width:1.32292"
           x="11.79901"
           y="176.2104">TRACKER</tspan></text><text
         xml:space="preserve"
         style="font-style:normal;font-variant:normal;font-weight:bold;font-stretch:normal;font-size:9.17222px;line-height:0;font-family:MuseoModerno;-inkscape-font-specification:'MuseoModerno Bold';text-align:start;letter-spacing:0px;word-spacing:0px;writing-mode:lr-tb;direction:ltr;text-orientation:upright;text-anchor:start;display:none;fill:#000000;fill-opacity:0.999618;stroke-width:1.32292"
         x="208.244"
         y="175.77313"
         id="text5"><tspan
           id="tspan5"
           style="font-style:normal;font-variant:normal;font-weight:bold;font-stretch:semi-condensed;font-size:9.17222px;font-family:Agrandir;-inkscape-font-specification:'Agrandir Bold Semi-Condensed';letter-spacing:0px;stroke-width:1.32292"
           x="0"
           y="0">GOOGLE SHEET</tspan></text><path
         style="display:inline;fill:url(#linearGradient6);stroke-width:0.484544"
         d="m 140.5682,176.71919 c -3.23199,-0.903 -3.63694,-5.77502 -0.60727,-7.30579 0.71849,-0.36303 1.92709,-0.42483 2.67038,-0.13661 0.44248,0.17163 0.44248,0.17163 6.95356,-6.63743 3.58109,-3.745 7.64038,-7.98987 9.02066,-9.43308 2.50962,-2.62396 2.50962,-2.62396 2.34902,-3.1506 -0.74005,-2.42673 1.00332,-5.00038 3.3872,-5.00038 2.28711,0 3.8726,2.1685 3.4662,4.74084 -0.0844,0.53418 -0.0844,0.53418 4.74516,4.74086 2.65625,2.31368 6.498,5.66454 8.53724,7.44641 3.70772,3.23973 3.70772,3.23973 4.30988,2.87123 0.75605,-0.46269 2.39918,-0.53318 3.1154,-0.1337 0.3453,0.19264 0.45898,0.20464 0.63231,0.0668 0.87927,-0.69932 19.61551,-20.20259 19.58105,-20.38264 -0.33453,-1.7479 -0.0298,-3.07639 0.92449,-4.03094 1.44979,-1.60419 7.04035,-0.52855 7.0921,2.98751 0.0158,1.03957 0.0158,1.03957 1.23557,2.00374 9.62966,7.60862 8.17967,7.18741 8.73216,6.88157 0.9118,-0.50477 1.98067,-0.47919 3.17862,0.076 0.35045,0.16246 21.2613,-21.7242 21.22117,-22.17958 -0.18606,-2.11199 0.0743,-3.08934 1.08567,-4.07606 1.8916,-1.83655 5.7157,-0.94316 5.87475,2.6478 0.13837,3.12398 -2.51011,4.42259 -5.15832,3.62251 -0.36652,-0.11073 -21.38431,21.7282 -21.3481,22.18128 0.17029,2.13154 -0.0902,3.10582 -1.09165,4.08283 -2.58944,2.52626 -6.38444,0.14842 -5.84797,-3.66412 0.0846,-0.60097 1.16187,-0.44707 -3.96373,-4.52019 -5.98932,-4.75953 -5.1735,-5.30581 -6.03679,-4.84748 -0.85492,0.45386 -3.08609,0.35279 -3.98733,-0.0207 -5.03182,5.68955 -11.05875,11.676 -16.51449,17.33741 -1.42149,1.47536 -2.87006,2.96758 -3.21907,3.31598 -0.6237,0.62271 -0.63239,0.64197 -0.50872,1.1278 0.33469,1.31505 -0.1207,2.99846 -1.03884,3.83955 -2.46183,2.25545 -5.93539,0.46719 -5.93408,-3.05498 3.8e-4,-1.04517 3.8e-4,-1.04517 -8.60058,-8.53005 -8.60096,-7.48485 -8.60096,-7.48485 -9.09308,-7.18472 -0.73376,0.44749 -1.86147,0.51127 -2.61815,0.14807 -0.59469,-0.28543 -0.59469,-0.28543 -1.52801,0.68468 -7.47555,7.77018 -16.88169,17.94294 -16.81708,18.18771 0.86146,3.26419 -1.376,6.08724 -4.19933,5.2984 z"
         id="path7" /><text
         xml:space="preserve"
         style="font-size:52.2111px;line-height:0;font-family:Monaco;-inkscape-font-specification:Monaco;text-align:start;letter-spacing:-4.7625px;word-spacing:0px;writing-mode:lr-tb;direction:ltr;text-orientation:upright;text-anchor:start;display:inline;fill:#000000;fill-opacity:0.999618;stroke-width:1.32292"
         x="8.581028"
         y="146.65688"
         id="text3"><tspan
           id="tspan3"
           style="font-style:normal;font-variant:normal;font-weight:bold;font-stretch:normal;font-size:52.2111px;font-family:MuseoModerno;-inkscape-font-specification:'MuseoModerno Bold';letter-spacing:-4.7625px;stroke-width:1.32292"
           x="8.581028"
           y="146.65688">PORTFO</tspan></text><text
         xml:space="preserve"
         style="font-size:52.2111px;line-height:0;font-family:Monaco;-inkscape-font-specification:Monaco;text-align:start;letter-spacing:-4.7625px;word-spacing:0px;writing-mode:lr-tb;direction:ltr;text-orientation:upright;text-anchor:start;display:inline;fill:#000000;fill-opacity:0.999618;stroke-width:1.32292"
         x="212.34288"
         y="146.65688"
         id="text8"><tspan
           id="tspan8"
           style="font-style:normal;font-variant:normal;font-weight:bold;font-stretch:normal;font-size:52.2111px;font-family:MuseoModerno;-inkscape-font-specification:'MuseoModerno Bold';letter-spacing:-4.7625px;stroke-width:1.32292"
           x="212.34288"
           y="146.65688">IO</tspan></text><text
         xml:space="preserve"
         style="font-size:52.2111px;line-height:0;font-family:Monaco;-inkscape-font-specification:Monaco;text-align:start;letter-spacing:-4.7625px;word-spacing:0px;writing-mode:lr-tb;direction:ltr;text-orientation:upright;text-anchor:start;display:inline;fill:url(#linearGradient3);stroke-width:1.32292"
         x="192.07385"
         y="146.65688"
         id="text6"><tspan
           id="tspan6"
           style="font-style:normal;font-variant:normal;font-weight:bold;font-stretch:normal;font-size:52.2111px;font-family:MuseoModerno;-inkscape-font-specification:'MuseoModerno Bold';letter-spacing:-4.7625px;fill:url(#linearGradient3);stroke-width:1.32292"
           x="192.07385"
           y="146.65688">L</tspan></text></g></g></svg>
