<?xml version="1.0" encoding="UTF-8" standalone="no"?>
<!-- Created with Inkscape (http://www.inkscape.org/) -->

<svg width="1080" height="160" viewBox="0 0 285.74999 42.333333" version="1.1" id="svg1" xml:space="preserve" xmlns="http://www.w3.org/2000/svg" xmlns:svg="http://www.w3.org/2000/svg">
  <defs id="defs1">
    <linearGradient id="swatch7" gradientTransform="translate(145.08171,-3.7041668)">
      <stop style="stop-color:#000000;stop-opacity:0.99961799;" offset="0" id="stop7" />
    </linearGradient>
    <linearGradient id="swatch6" gradientTransform="matrix(0.03890247,0,0,0.00552672,-15.014917,-0.71246956)">
      <stop style="stop-color:#02ad48;stop-opacity:1;" offset="0" id="stop6" />
    </linearGradient>
  </defs>
  <g id="layer4">
    <g id="text18" style="font-size:31.1312px;line-height:1.4;font-family:Arial;-inkscape-font-specification:Arial;letter-spacing:0px;word-spacing:0px;text-orientation:upright;fill:#c66f54;stroke:#616161;stroke-width:0.648568" aria-label="TradeGist">
      <path style="font-family:'Plus Jakarta Sans';-inkscape-font-specification:'Plus Jakarta Sans';fill:url(#swatch7);stroke:none" d="M 7.781181,38.708769 V 15.796205 h 2.33484 v 3.735744 L 9.7424466,18.878194 q 0.9961984,-1.587691 2.6461524,-2.521627 1.681085,-0.933936 3.829137,-0.933936 2.365972,0 4.202712,1.151854 1.867873,1.120723 2.926333,3.081989 1.089592,1.961266 1.089592,4.482893 0,2.490496 -1.089592,4.482893 -1.05846,1.961265 -2.926333,3.11312 -1.83674,1.120723 -4.202712,1.120723 -2.148052,0 -3.8914,-0.965067 -1.712216,-0.996199 -2.5838894,-2.801808 l 0.3735744,-0.342443 v 9.961984 z m 8.312031,-8.187506 q 1.681084,0 2.988595,-0.840542 1.338641,-0.840543 2.08579,-2.272578 0.77828,-1.463166 0.77828,-3.268776 0,-1.836741 -0.77828,-3.268776 -0.747149,-1.432035 -2.08579,-2.272578 -1.307511,-0.840542 -2.988595,-0.840542 -1.681085,0 -3.050858,0.840542 -1.338642,0.840543 -2.148053,2.303709 -0.77828,1.432035 -0.77828,3.237645 0,1.80561 0.77828,3.268776 0.809411,1.432035 2.148053,2.272578 1.369773,0.840542 3.050858,0.840542 z m 20.266406,2.33484 q -2.365972,0 -4.296106,-1.120723 -1.930134,-1.151855 -3.081989,-3.11312 -1.120723,-1.992397 -1.120723,-4.514024 0,-2.490496 1.120723,-4.451762 1.120723,-1.961266 3.019727,-3.081989 1.930134,-1.151854 4.358368,-1.151854 2.428233,0 4.327237,1.120723 1.930134,1.120723 3.019726,3.081989 1.120723,1.961265 1.120723,4.482893 0,2.552758 -1.151854,4.545155 -1.151854,1.961266 -3.081989,3.081989 -1.899003,1.120723 -4.233843,1.120723 z m 0,-2.33484 q 1.681085,0 3.019726,-0.840542 1.369773,-0.840543 2.148053,-2.303709 0.809411,-1.463167 0.809411,-3.268776 0,-1.80561 -0.809411,-3.237645 -0.77828,-1.432035 -2.148053,-2.272578 -1.338641,-0.840542 -3.019726,-0.840542 -1.681085,0 -3.050858,0.840542 -1.338642,0.840543 -2.148053,2.272578 -0.809411,1.432035 -0.809411,3.237645 0,1.805609 0.809411,3.268776 0.809411,1.463166 2.148053,2.303709 1.369773,0.840542 3.050858,0.840542 z m 12.577027,1.961266 V 15.796205 h 2.33484 v 2.739546 l -0.311312,-0.404706 q 0.591493,-1.182986 1.774479,-1.867872 1.214116,-0.684886 2.926333,-0.684886 h 1.05846 v 2.33484 h -1.463166 q -1.80561,0 -2.895202,1.120723 -1.089592,1.120723 -1.089592,3.175382 v 10.273297 z m 16.90422,0.186787 q -2.241447,0 -3.455563,-1.307511 -1.214117,-1.30751 -1.214117,-3.735744 v -9.495016 h -3.081989 v -2.33484 h 0.77828 q 1.058461,0 1.681085,-0.684886 0.622624,-0.716018 0.622624,-1.774479 v -1.400904 h 2.33484 v 3.860269 h 3.673482 v 2.33484 h -3.673482 v 9.495016 q 0,0.840543 0.249049,1.494298 0.24905,0.622624 0.840543,0.996198 0.622624,0.373575 1.649954,0.373575 0.249049,0 0.591492,-0.03113 0.342444,-0.03113 0.591493,-0.06226 v 2.085791 q -0.373574,0.09339 -0.840542,0.124524 -0.466968,0.06226 -0.747149,0.06226 z m 7.409242,-0.186787 V 18.131045 h -3.331038 v -2.33484 h 3.331038 v -1.494298 q 0,-1.743347 0.77828,-2.926332 0.77828,-1.214117 2.054659,-1.8367413 1.27638,-0.622624 2.739546,-0.622624 0.311312,0 0.716018,0.062262 0.404705,0.031131 0.653755,0.093394 v 2.1169213 q -0.217919,-0.06226 -0.591493,-0.06226 -0.373574,-0.03113 -0.52923,-0.03113 -1.494298,0 -2.490496,0.716017 -0.996199,0.716018 -0.996199,2.490496 v 1.494298 h 4.078187 v 2.33484 h -4.078187 v 14.351484 z m 17.40231,0.373574 q -2.365972,0 -4.296106,-1.120723 -1.930134,-1.151855 -3.081989,-3.11312 -1.120723,-1.992397 -1.120723,-4.514024 0,-2.490496 1.120723,-4.451762 1.120723,-1.961266 3.019727,-3.081989 1.930134,-1.151854 4.358368,-1.151854 2.428233,0 4.327237,1.120723 1.930134,1.120723 3.019726,3.081989 1.120723,1.961265 1.120723,4.482893 0,2.552758 -1.151854,4.545155 -1.151854,1.961266 -3.081989,3.081989 -1.899003,1.120723 -4.233843,1.120723 z m 0,-2.33484 q 1.681085,0 3.019726,-0.840542 1.369773,-0.840543 2.148053,-2.303709 0.809411,-1.463167 0.809411,-3.268776 0,-1.80561 -0.809411,-3.237645 -0.77828,-1.432035 -2.148053,-2.272578 -1.338641,-0.840542 -3.019726,-0.840542 -1.681085,0 -3.050858,0.840542 -1.338642,0.840543 -2.148053,2.272578 -0.809411,1.432035 -0.809411,3.237645 0,1.805609 0.809411,3.268776 0.809411,1.463166 2.148053,2.303709 1.369773,0.840542 3.050858,0.840542 z m 12.577033,1.961266 V 8.9162097 h 2.33484 V 32.482529 Z m 7.12904,0 V 15.796205 h 2.33484 v 16.686324 z m 0,-19.768313 V 9.2897841 h 2.33484 v 3.4244319 z m 14.94298,20.141887 q -2.36597,0 -4.2961,-1.120723 -1.93014,-1.151855 -3.08199,-3.11312 -1.12073,-1.992397 -1.12073,-4.514024 0,-2.490496 1.12073,-4.451762 1.12072,-1.961266 3.01972,-3.081989 1.93014,-1.151854 4.35837,-1.151854 2.42824,0 4.32724,1.120723 1.93013,1.120723 3.01973,3.081989 1.12072,1.961265 1.12072,4.482893 0,2.552758 -1.15186,4.545155 -1.15185,1.961266 -3.08198,3.081989 -1.89901,1.120723 -4.23385,1.120723 z m 0,-2.33484 q 1.68109,0 3.01973,-0.840542 1.36977,-0.840543 2.14805,-2.303709 0.80941,-1.463167 0.80941,-3.268776 0,-1.80561 -0.80941,-3.237645 -0.77828,-1.432035 -2.14805,-2.272578 -1.33864,-0.840542 -3.01973,-0.840542 -1.68108,0 -3.05086,0.840542 -1.33864,0.840543 -2.14805,2.272578 -0.80941,1.432035 -0.80941,3.237645 0,1.805609 0.80941,3.268776 0.80941,1.463166 2.14805,2.303709 1.36978,0.840542 3.05086,0.840542 z" id="path18" />
      <path style="font-weight:bold;font-family:'Plus Jakarta Sans';-inkscape-font-specification:'Plus Jakarta Sans Bold';fill:url(#swatch6);stroke:none" d="M 141.83216,32.482529 V 13.025528 h -6.00832 V 9.2897841 h 16.18823 v 3.7357439 h -5.91493 v 19.457001 z m 12.76379,0 V 9.2897841 h 8.62335 q 2.36597,0 4.17158,0.8716739 1.83674,0.840542 2.86407,2.490496 1.02733,1.618822 1.02733,3.953662 0,2.397103 -1.15186,4.078188 -1.12072,1.681084 -3.05086,2.490496 l 5.32344,9.308229 h -4.7942 l -5.69701,-10.179903 2.73954,1.618822 h -5.82153 v 8.561081 z m 4.23385,-12.296825 h 4.45176 q 1.15185,0 1.9924,-0.435836 0.84054,-0.466968 1.30751,-1.27638 0.46696,-0.809411 0.46696,-1.867872 0,-1.089592 -0.46696,-1.867872 -0.46697,-0.809411 -1.30751,-1.245248 -0.84055,-0.466968 -1.9924,-0.466968 h -4.45176 z m 14.44485,12.296825 8.00072,-23.1927449 h 5.47909 l 8.00072,23.1927449 h -4.60742 l -1.64995,-4.980992 h -8.96579 l -1.68109,4.980992 z m 7.47149,-8.716737 h 6.53755 l -3.86027,-11.549675 h 1.18299 z m 26.55489,9.090311 q -2.49049,0 -4.60742,-0.902805 -2.08579,-0.902805 -3.67348,-2.521627 -1.55656,-1.618822 -2.42823,-3.798006 -0.87167,-2.179185 -0.87167,-4.763074 0,-2.58389 0.84054,-4.763074 0.87167,-2.210315 2.42823,-3.798006 1.58769,-1.618823 3.70461,-2.4904965 2.11693,-0.9028048 4.60742,-0.9028048 2.4905,0 4.45176,0.8405424 1.9924,0.8405429 3.36217,2.2414469 1.36978,1.369772 1.96127,3.019726 l -3.79801,1.774478 q -0.65375,-1.743347 -2.21031,-2.86407 -1.55656,-1.151854 -3.76688,-1.151854 -2.17918,0 -3.86027,1.027329 -1.64995,1.02733 -2.58389,2.832939 -0.9028,1.80561 -0.9028,4.233844 0,2.428233 0.9028,4.264974 0.93394,1.80561 2.58389,2.83294 1.68109,1.027329 3.86027,1.027329 2.21032,0 3.76688,-1.120723 1.55656,-1.151854 2.21031,-2.895202 l 3.79801,1.774479 q -0.59149,1.649953 -1.96127,3.050857 -1.36977,1.369773 -3.36217,2.210316 -1.96126,0.840542 -4.45176,0.840542 z m 13.19963,-0.373574 V 9.2897841 h 4.23385 V 21.36869 l -1.15186,-0.404706 9.86859,-11.6741999 h 5.32344 l -9.24597,10.9581829 0.24905,-2.988595 9.2771,15.223157 h -4.98099 l -6.22624,-10.211034 -3.11312,3.704613 v 6.506421 z m 21.13811,0 V 9.2897841 h 15.40994 v 3.7357439 h -11.1761 v 5.94606 h 10.55348 v 3.735744 h -10.55348 v 6.039453 h 11.1761 v 3.735744 z m 18.52304,0 V 9.2897841 h 8.62334 q 2.36597,0 4.17158,0.8716739 1.83674,0.840542 2.86407,2.490496 1.02733,1.618822 1.02733,3.953662 0,2.397103 -1.15185,4.078188 -1.12072,1.681084 -3.05086,2.490496 l 5.32344,9.308229 h -4.79421 l -5.69701,-10.179903 2.73955,1.618822 h -5.82154 v 8.561081 z m 4.23384,-12.296825 h 4.45177 q 1.15185,0 1.99239,-0.435836 0.84054,-0.466968 1.30751,-1.27638 0.46697,-0.809411 0.46697,-1.867872 0,-1.089592 -0.46697,-1.867872 -0.46697,-0.809411 -1.30751,-1.245248 -0.84054,-0.466968 -1.99239,-0.466968 h -4.45177 z" id="path19" />
    </g>
  </g>
</svg>