<svg xmlns="http://www.w3.org/2000/svg" version="1.1" width="512" height="512" viewBox="0 0 512 512" id="svg1" xmlns:svg="http://www.w3.org/2000/svg"><defs id="defs1"></defs><g id="g9" transform="matrix(1.9621149,0,0,1.9621149,3.2956418,5.2566252)" style="display:none">
    <g id="g8" transform="matrix(0.08621991,0,0,0.08621991,-15.626789,18.26894)">
      <g id="g4" style="display:inline">
        <path id="path2" style="fill:#02ad48;stroke-width:31.0988;stroke-dasharray:none" d="M 2137.9579,1954.1766 2816.2461,185.74692 3021.9699,305.30654 2343.6817,2073.7362 Z"></path>
        <path id="path3" style="fill:#02ad48;stroke-width:23.3967" d="M 371.92558,2164.9586 1352.5288,860.72424 1561.3893,1065.3821 580.78601,2369.6164 Z"></path>
        <path id="path4" style="fill:#02ad48;stroke-width:26.7755" d="m 1611.0586,977.90075 714.7338,887.05275 -186.7176,184.0873 -714.7339,-887.0527 z"></path>
      </g>
      <g id="g7" style="display:inline">
        <circle style="fill:#02ad48;stroke-width:46.7012" id="circle7" r="275.53644" cy="323.91211" cx="2859.4329"></circle>
        <circle style="fill:#02ad48;stroke-width:46.7012" id="circle9" r="275.53644" cy="1969.77" cx="2224.6021"></circle>
        <circle style="fill:#02ad48;stroke-width:46.7012" id="circle10" r="275.53644" cy="970.49921" cx="1431.0635"></circle>
        <circle style="fill:#02ad48;stroke-width:46.7012" id="circle11" r="275.53644" cy="2216.6487" cx="490.57327"></circle>
      </g>
    </g>
  </g><g id="g18" transform="matrix(1.9621149,0,0,1.9621149,8.3637035,-4.8794974)" style="display:inline">
    <g id="g17" transform="matrix(0.08621991,0,0,0.08621991,-15.626789,18.26894)">
      <g id="g13" style="display:inline">
        <path id="path11" style="fill:#02ad48;stroke-width:31.0988;stroke-dasharray:none" d="M 550.19473,2175.8642 2282.9974,509.29111 2548.6367,664.80009 815.83412,2331.3731 Z"></path>
      </g>
      <g id="g16" style="display:inline">
        <circle style="fill:#02ad48;stroke-width:78.6901" id="circle14" r="464.27054" cy="498.84222" cx="2479.2434"></circle>
        <circle style="display:inline;fill:#02ad48;stroke-width:78.6901" id="circle18" r="464.27054" cy="2098.5884" cx="825.573"></circle>
      </g>
    </g>
  </g></svg>